<svg id="svg" xmlns="http://www.w3.org/2000/svg" xmlns:xlink="http://www.w3.org/1999/xlink" width="400" height="400" viewBox="0, 0, 400,400"><g id="svgg"><path id="path0" d="M305.078 1.056 C 282.748 8.439,272.429 31.682,282.056 52.915 L 284.426 58.141 263.897 78.681 L 243.369 99.220 272.266 128.125 L 301.163 157.030 321.950 136.253 L 342.738 115.476 346.174 117.232 C 378.978 134.002,413.594 96.238,394.511 64.499 C 386.433 51.064,365.170 42.815,352.134 48.060 C 350.896 48.558,350.843 48.384,351.630 46.378 C 354.462 39.164,351.865 24.173,346.342 15.853 C 338.050 3.361,318.890 -3.510,305.078 1.056 M221.484 120.436 C 188.839 148.846,151.094 165.780,106.045 172.228 C 69.813 177.414,46.069 189.465,27.204 212.242 C -35.219 287.609,16.773 399.994,114.063 399.994 C 174.046 399.994,218.634 359.623,227.766 297.044 C 234.404 251.556,250.880 213.409,277.681 181.478 C 281.363 177.092,284.375 173.223,284.375 172.880 C 284.375 172.203,227.973 115.608,227.340 115.651 C 227.127 115.665,224.492 117.819,221.484 120.436 M60.156 274.609 C 65.431 275.684,69.827 276.563,69.925 276.563 C 70.023 276.563,69.932 278.959,69.723 281.888 C 68.956 292.608,72.838 305.059,79.471 313.154 L 82.260 316.558 74.288 324.490 L 66.316 332.422 63.604 329.297 C 51.344 315.168,44.918 294.181,47.372 276.281 C 47.967 271.941,47.411 272.014,60.156 274.609 " stroke="none" fill="#000000" fill-rule="evenodd"></path></g></svg>