<svg id="svg" xmlns="http://www.w3.org/2000/svg" xmlns:xlink="http://www.w3.org/1999/xlink" width="400" height="400" viewBox="0, 0, 400,400"><g id="svgg"><path id="path0" d="M130.859 1.051 C 113.279 6.895,103.906 20.579,103.906 40.399 L 103.906 48.438 87.891 48.438 L 71.875 48.438 71.875 76.172 L 71.875 103.906 142.188 103.906 L 212.500 103.906 212.500 76.172 L 212.500 48.438 196.094 48.438 L 179.688 48.438 179.688 41.513 C 179.688 23.251,172.279 10.269,157.901 3.339 C 151.048 0.036,137.388 -1.120,130.859 1.051 M148.065 25.587 C 153.049 28.272,155.469 33.688,155.469 42.162 L 155.469 48.438 141.797 48.438 L 128.125 48.438 128.125 41.280 C 128.125 27.402,137.596 19.949,148.065 25.587 M1.563 235.547 L 1.563 400.000 119.313 400.000 L 237.064 400.000 232.310 395.117 C 216.611 378.991,204.882 361.898,198.029 345.157 L 195.375 338.672 162.531 338.468 L 129.688 338.264 129.688 326.554 L 129.688 314.844 159.460 314.844 L 189.232 314.844 188.802 313.086 C 188.565 312.119,187.942 306.846,187.417 301.367 L 186.461 291.406 158.074 291.406 L 129.688 291.406 129.688 279.697 L 129.688 267.987 159.431 267.783 L 189.174 267.578 191.679 260.938 C 193.057 257.285,195.317 252.213,196.702 249.666 C 198.086 247.119,199.219 244.746,199.219 244.393 C 199.219 244.039,183.574 243.750,164.453 243.750 L 129.688 243.750 129.688 232.422 L 129.688 221.094 164.844 221.094 L 200.000 221.094 200.026 232.227 L 200.052 243.359 202.543 240.234 C 222.715 214.924,249.246 204.015,276.698 209.742 C 279.846 210.399,282.510 210.937,282.617 210.937 C 282.725 210.937,282.813 179.473,282.813 141.016 L 282.813 71.094 259.375 71.094 L 235.938 71.094 235.938 98.828 L 235.938 126.563 142.188 126.563 L 48.438 126.563 48.438 98.828 L 48.438 71.094 25.000 71.094 L 1.563 71.094 1.563 235.547 M106.250 185.547 L 106.250 196.875 94.531 196.875 L 82.813 196.875 82.813 185.547 L 82.813 174.219 94.531 174.219 L 106.250 174.219 106.250 185.547 M200.000 185.547 L 200.000 196.875 164.844 196.875 L 129.688 196.875 129.688 185.547 L 129.688 174.219 164.844 174.219 L 200.000 174.219 200.000 185.547 M328.210 189.517 C 308.158 194.909,294.241 211.746,292.491 232.729 L 291.995 238.673 286.818 236.155 C 250.754 218.614,209.468 246.699,209.389 288.827 C 209.321 324.748,221.714 352.186,251.527 382.120 C 269.503 400.169,277.197 403.245,292.527 398.510 C 299.436 396.376,307.137 396.384,314.794 398.534 C 333.746 403.855,347.130 396.468,371.591 367.188 C 413.949 316.485,406.842 244.790,358.234 232.434 C 347.326 229.661,331.432 231.500,321.060 236.736 L 316.173 239.203 316.624 234.833 C 317.800 223.442,326.445 213.962,336.772 212.739 L 340.625 212.282 340.625 200.282 L 340.625 188.281 336.523 188.333 C 334.268 188.361,330.527 188.894,328.210 189.517 M106.250 233.203 L 106.250 244.531 94.531 244.531 L 82.813 244.531 82.813 233.203 L 82.813 221.875 94.531 221.875 L 106.250 221.875 106.250 233.203 M106.250 279.688 L 106.250 291.406 94.531 291.406 L 82.813 291.406 82.813 279.688 L 82.813 267.969 94.531 267.969 L 106.250 267.969 106.250 279.688 M106.250 326.563 L 106.250 338.281 94.531 338.281 L 82.813 338.281 82.813 326.563 L 82.813 314.844 94.531 314.844 L 106.250 314.844 106.250 326.563 " stroke="none" fill="#000000" fill-rule="evenodd"></path></g></svg>