<svg id="svg" xmlns="http://www.w3.org/2000/svg" xmlns:xlink="http://www.w3.org/1999/xlink" width="400" height="400" viewBox="0, 0, 400,400" version="1.1"><g id="svgg"><path id="path0" d="M13.563 75.740 C 7.402 76.455,4.403 78.133,1.903 82.266 C 0.008 85.398,-0.349 127.975,1.400 142.188 C 14.428 248.012,66.231 304.301,165.625 320.632 C 185.220 323.851,223.738 326.270,230.077 324.680 C 232.222 324.141,230.184 322.001,172.888 264.600 C 124.359 215.981,113.390 204.613,113.008 202.539 C 111.493 194.329,118.777 187.122,127.073 188.622 C 129.769 189.110,136.145 195.227,189.069 248.098 C 221.515 280.511,248.370 307.031,248.748 307.031 C 249.815 307.031,248.702 266.484,247.333 255.469 C 233.750 146.164,175.909 89.100,66.406 76.971 C 53.858 75.581,21.442 74.826,13.563 75.740 M354.688 149.688 C 353.613 149.857,349.570 150.379,345.703 150.847 C 313.185 154.783,283.829 167.468,264.691 185.854 L 257.692 192.578 260.863 203.390 C 264.841 216.953,268.348 233.987,269.975 247.656 C 270.665 253.457,271.387 258.701,271.578 259.310 C 271.799 260.014,278.115 254.282,288.893 243.597 C 309.267 223.397,312.359 221.819,319.614 227.924 C 328.899 235.736,327.471 238.350,297.456 268.491 L 273.206 292.842 272.596 305.601 C 272.260 312.618,271.619 319.549,271.173 321.004 L 270.361 323.649 276.391 323.105 C 355.280 315.988,400.000 262.425,400.000 175.056 C 400.000 150.221,399.431 149.666,373.828 149.494 C 364.375 149.431,355.762 149.518,354.688 149.688 " stroke="none" fill="#000000" fill-rule="evenodd"></path></g></svg>