<svg id="svg" xmlns="http://www.w3.org/2000/svg" xmlns:xlink="http://www.w3.org/1999/xlink" width="400" height="400" viewBox="0, 0, 400,400"><g id="svgg"><path id="path0" d="M136.328 38.647 C 49.676 48.606,-10.367 109.759,1.208 176.265 C 10.513 229.729,66.460 278.782,120.703 281.034 C 141.678 281.905,157.287 276.631,193.172 256.545 C 228.351 236.854,237.329 233.796,276.574 228.133 C 351.362 217.342,400.000 184.389,400.000 144.509 C 400.000 112.823,365.729 87.936,283.984 60.259 C 229.180 41.704,176.640 34.013,136.328 38.647 M144.974 96.165 C 184.957 103.515,207.177 149.696,187.774 185.118 C 163.555 229.331,100.455 228.171,78.482 183.108 C 56.656 138.349,95.827 87.130,144.974 96.165 M124.204 118.779 C 95.282 125.649,85.180 162.689,106.437 183.920 C 128.415 205.869,165.342 194.399,171.607 163.677 C 177.160 136.450,151.625 112.265,124.204 118.779 M392.969 204.385 C 365.767 228.478,330.047 243.115,280.859 250.324 C 241.705 256.062,237.558 257.475,202.344 277.065 C 183.672 287.453,170.190 293.977,160.063 297.525 C 106.559 316.270,42.495 290.462,1.331 233.579 C -0.047 231.675,-0.064 231.771,0.354 239.063 C 3.886 300.558,68.198 362.500,128.516 362.500 C 148.957 362.500,165.164 356.575,198.047 337.082 C 232.939 316.398,236.111 315.302,282.648 307.833 C 353.936 296.393,400.689 257.488,399.826 210.325 L 399.609 198.503 392.969 204.385 " stroke="none" fill="#000000" fill-rule="evenodd"></path></g></svg>