<?xml version="1.0" encoding="utf-8"?>
<!-- Generator: Adobe Illustrator 23.1.1, SVG Export Plug-In . SVG Version: 6.00 Build 0)  -->
<svg version="1.1" id="svg" xmlns="http://www.w3.org/2000/svg" xmlns:xlink="http://www.w3.org/1999/xlink" x="0px" y="0px"
	 viewBox="0 0 400 400" style="enable-background:new 0 0 400 400;" xml:space="preserve">
<style type="text/css">
	.st0{fill-rule:evenodd;clip-rule:evenodd;}
</style>
<g id="svgg">
	<path id="path0" class="st0" d="M74.7,4.2c-8.5,5.2-8.5,19,0,24.2c9.5,5.8,21.4-0.9,21.4-12.1S84.2-1.6,74.7,4.2 M164.7,25
		c-12.1,7.4-6.6,26,7.6,26c8.7,0,13.8-5.2,13.8-13.8C186.2,25.9,174.3,19.2,164.7,25 M261,24.9c-25.7,7.5-40.3,27.8-40.3,56.3v11.3
		l18,0c20.3,0,25.3-0.8,34.7-5.5c20.5-10.3,30.5-27.5,30.5-52.4V23.3l-18.8,0.1C269.8,23.4,265.2,23.7,261,24.9 M36.8,70.6
		C24.5,72.5,16,76.5,10,83.2l-4.1,4.6l0.4,6.1c0.9,13.7,30.6,61.4,62,99.8l8,9.7h6.5c7.7,0,7.4,0.9,3.9-13
		c-7.9-31.2-24.3-60.1-47.6-84l-8.7-8.9l4-4.7l4-4.7l7.3,7.2c24.6,24.2,44.4,57.3,52.3,87.5c2.4,9.2,2.5,9.2,5.7,1.3
		c15-36.4,3.4-87.8-23.8-105.2C69.9,72.4,49.7,68.6,36.8,70.6 M124,88.2c-6.2,3.1-11.9,8.9-11,11.1c11,25.3,13.1,55.6,5.5,81
		c-2.3,7.8-1.8,8,3.4,0.9c10-13.6,18.6-34.3,21.5-51.5c0.8-4.9,1.6-9.1,1.7-9.3c1.1-1.7,12.4,1.1,12.4,3.1
		c0,18.7-15.6,54.7-31.9,73.7l-5.4,6.2h16.3h16.3l0-13.2c0-24.9,13.4-44.7,35.3-52.1l5-1.7l-0.6-3.5
		C187.5,102.3,147.7,76.4,124,88.2 M319.3,97.1c-23.5,8.2-30.1,23.6-22.9,52.5c4.9,19.3,3.9,26.6-4.4,32.4
		c-5.5,3.9-19.2,3.9-29.4-0.1c-0.8-0.3-1.1,1.5-1.1,7.7c0,4.5-0.4,9.4-0.8,10.9l-0.8,2.8h22.9c12.6,0,22.9-0.2,22.9-0.4
		c0-6.7,16.7-72.1,19.6-76.8c0.3-0.5,4.6,0.7,11.3,3.1c0.6,0.2-0.3,4.5-2.9,12.8c-5.8,18.6-15.7,60-14.7,61.1c0.1,0.1,16,0.2,35.2,0
		l35-0.2l-3.7-4.1c-7.6-8.2-14.7-11.4-28.7-12.9c-9.5-1-13.5-2.7-16.3-6.9c-3.6-5.3-2.6-8,7.8-22.3c7.3-10,8.8-35.3,2.9-48.3
		C345.8,96.8,333.1,92.2,319.3,97.1 M193.7,149.7c-9.2,3.2-17.1,9.4-22.4,17.5c-3.1,4.7-2.9,5,3.6,7.1c2.6,0.8,5,1.7,5.4,1.9
		c0.5,0.3-0.8,4.7-3.2,11.3c-0.3,0.8-1.7,0.6-5.3-0.6c-2.7-0.9-5.3-1.7-5.7-1.7c-1,0-0.9,11,0.2,14.9l0.9,3.2h39.7h39.7l0.9-3.2
		c1.1-3.9,1.2-8,0.2-8c-0.4,0-3,0.8-5.7,1.7c-3.7,1.3-5,1.4-5.3,0.6c-3-8.3-3.7-11.1-2.8-11.5c0.6-0.2,3.8-1.3,7.1-2.4
		c6.9-2.3,6.9-2.3,3.3-9.8c-4.9-10.4-21.3-22.8-30.1-22.8c-0.3,0-0.5,3.1-0.5,6.9v6.9h-6.9H200v-6.9c0-3.8-0.3-6.9-0.6-6.9
		C199,148,196.4,148.8,193.7,149.7 M30.3,176C11.6,183.8,6.1,189,6.1,199v4.3H33h26.9l-6.4-8c-3.5-4.4-8.6-11-11.3-14.7
		C36.6,173.1,36.9,173.2,30.3,176 M213.9,182.5v6.9h-6.9H200v-6.9v-6.9h6.9h6.9V182.5 M6.1,221.3c0,48.4,31.1,106.1,75,139.2
		c66.4,50,171.3,50,237.7,0c43.9-33.1,75-90.8,75-139.2v-4.1H200H6.1V221.3 M56.8,288.8c15.3,23.2,37.5,43.7,61.2,56.5
		c3.7,2,6.9,4,7.2,4.4c0.5,0.7-3.8,11.2-4.5,11.2c-0.8,0-11.6-5.8-16.7-8.9c-21.4-13.3-42.7-33.7-56.2-53.7c-5.6-8.3-5.6-7.8,0-11.2
		C53.7,283.2,52.9,283,56.8,288.8 M151.5,362.6v6.9h-6.9h-6.9v-6.9v-6.9h6.9h6.9V362.6"/>
</g>
</svg>
