<?xml version="1.0" encoding="utf-8"?>
<!-- Generator: Adobe Illustrator 23.1.1, SVG Export Plug-In . SVG Version: 6.00 Build 0)  -->
<svg version="1.1" id="svg" xmlns="http://www.w3.org/2000/svg" xmlns:xlink="http://www.w3.org/1999/xlink" x="0px" y="0px"
	 viewBox="0 0 400 400" style="enable-background:new 0 0 400 400;" xml:space="preserve">
<style type="text/css">
	.st0{fill-rule:evenodd;clip-rule:evenodd;}
</style>
<g id="svgg">
	<path id="path0" class="st0" d="M101.4,2.8c-7.3,2.7-12.8,8-16.1,15.5l-1.7,3.8h-6.2c-12.6,0-23.5,7.5-26.6,18.4
		c-0.8,2.8-1.7,6-2,7.1c-0.4,1.5-1.8,2.4-5.6,3.7c-35,11.8-38.1,59.1-5,76.7l5.3,2.8l-1.8,2.7c-10,14.9-7.6,31.5,6,41.5l4.9,3.6
		l-1.6,4.3c-6.8,17.8,4.9,36.2,23.9,37.6l6.3,0.5l8.5,23.9c10.1,28.3,7.9,25.1,15.2,22.2c6.9-2.7,6.9-2.7,3.4-6
		c-6.8-6.5-10.5-17.2-10.1-29l0.3-7.9l-3.5-3.8c-9.6-10.4-13-24.9-9.2-38.5l1.4-5l-5.6-5c-28.3-25.5-22-71.9,12-88.5
		c4.6-2.3,5.1-2.7,7.8-8.8c6-13.4,20.7-24.1,33-24.1c2.3,0,3.1-0.5,4.1-2.4c2.7-5.3,14.6-14.6,20.4-16.1c3.3-0.8,2.9-1.9-0.7-2.6
		c-3.3-0.6-15.2,0-17.5,0.9c-1.1,0.4-1.5-0.5-2.3-4.7C135.3,7.5,117.7-3.2,101.4,2.8 M163,43.9c-7.3,2.7-12.8,8-16.1,15.5l-1.7,3.8
		H139c-12.6,0-23.5,7.5-26.6,18.4c-0.8,2.8-1.7,6-2,7.1c-0.4,1.5-1.8,2.4-5.6,3.7c-35,11.8-38.1,59.1-5,76.7l5.3,2.8l-1.8,2.7
		c-10,14.9-7.6,31.5,6,41.5l4.9,3.6l-1.6,4.3c-6.5,17.2,4.9,36.1,23,38c2.7,0.3,14.4,1.9,26.1,3.6c11.6,1.7,21.4,2.9,21.6,2.7
		c0.2-0.2-0.3-3.9-1.2-8.1c-2-9.4-2.9-26.2-2-37.6c0.8-10,1.4-9.1-8.9-14.1c-8.6-4.3-21.3-7.6-31.7-8.2l-7.9-0.5v-6.4v-6.4l8.3,0.5
		c9.4,0.6,25.3,4.3,33.1,7.8c2.8,1.2,5.3,2,5.5,1.8c1.6-1.6-12.5-38.1-15.8-40.9c-7.9-6.9-25.9-11.7-44-11.7h-6.5l-0.5-4.5
		c-0.3-2.5-0.5-5.4-0.5-6.5l0-2.1l11.8,0.5c11.4,0.5,21.9,2.1,28.8,4.5c1.9,0.6,3.6,1,3.8,0.7c0.6-0.6-10.3-22.4-16.7-33.6l-5.3-9.1
		l5.2-3.3c5-3.2,5.2-3.3,6.4-1.7c2.8,3.8,11.9,20.9,19.5,36.6l8.3,17l2.5-5.8c5-11.3,12.1-22,20.6-30.9c7.1-7.5,6.2-7.3,10.8-1.5
		l3.7,4.7l-5.5,5.7c-9.9,10.4-18.2,25-22.4,39.6l-2.1,7.4l3.8,11c2.1,6.1,4,11.6,4.3,12.3c0.3,0.9,1,0.4,2.2-1.7
		c14.2-23.8,29-36.6,43.2-37.4l7.1-0.4v-3.3c0-5-2.8-11.4-7.3-16.6l-4-4.7l4-4.7c13-15.2,8.1-38.3-9.6-45
		c-4.9-1.9-17.7-2.1-21.7-0.5c-1.1,0.4-1.5-0.5-2.3-4.7C196.8,48.5,179.2,37.8,163,43.9 M287.8,99c-4.1,2.7-5.7,5.9-5.7,11.8
		c0,4.7,4.5,57.7,5.5,65.3c0.4,3,0.3,3-4,4.6c-15.4,5.5-8.8,12.1,12.2,12.1s27.6-6.6,12.2-12.1c-4.4-1.5-4.4-1.6-4-4.6
		c1-7.6,5.5-60.5,5.5-65.3c0-9.1-4.4-13.4-13.7-13.4C291.8,97.4,289.5,97.9,287.8,99 M226.2,161.6C205,175,194,198.2,193.4,230.8
		c-0.4,19.2,0,24.3,2.7,33.5c2,6.9,1.7,6.7,15,8.8l12.1,1.9l-0.5-2.6c-7.2-41.3,2.5-88.7,21.7-106.1
		C251.1,160.2,234.8,156.1,226.2,161.6 M269.3,160.5c-11.9,5.8-27.7,28.4-33,47.2c-4.5,15.9-2.3,68.6,2.9,69.6
		c5,1,35.6,5.6,37.3,5.6c1.8,0,1.8-0.1,0.8-7.1c-2.3-16-2.2-61.5,0.2-70.5c0.4-1.5-0.1-2.2-3.2-3.7c-14.1-7.1-15.9-20.7-3.8-28.6
		c3.5-2.3,3.9-2.8,3.5-5c-0.3-1.4-0.5-4-0.5-5.8C273.5,158.5,273.4,158.5,269.3,160.5 M318,162.3c0,1.8-0.2,4.4-0.5,5.8
		c-0.4,2.2,0,2.8,3.3,5c18.9,12.5,4.6,32.4-23.8,33.2l-6.8,0.2l-0.6,3.8c-1.9,12.9-0.2,72.5,2.2,75c0.3,0.3,55.5,8.8,55.7,8.6
		c1.3-1.5,5.1-10.7,7-16.6l2.3-7.5l0-28.2c0-31.8-0.3-34.2-7.2-48.8c-7.5-16-23.7-33.7-30.8-33.7C318.4,159,318,160.5,318,162.3
		 M349.2,160.3c-4.2,2.2-4.2,2.4,1.7,10.1c15.1,20,19.7,36.6,19.6,71.1c0,25.1-1.2,33.7-6.7,47.3c-1.9,4.7-2.5,7.2-1.9,7.4
		c0.5,0.2,3.8,0.8,7.2,1.3l6.3,1l2.5-2.9c9.2-10.5,16.6-25.3,19.2-38.2c2.2-10.7,1.4-43.3-1.2-52.2C387.2,176,363.3,153,349.2,160.3
		 M115.5,277c-69.2,18.1-55.4,121.4,16.2,121.4c10.2,0,245.7-35.6,251.5-38c20.5-8.6,20.5-38.5,0-47.1c-1.5-0.7-56.7-9.5-122.5-19.6
		C129.1,273.5,129.1,273.4,115.5,277 M23.5,304c-0.9,0.9-1.3,2.9-1.3,5.5c0,6.8,0,6.8,20.1,6.8h17.4l1-3.1c1.3-4,2.4-3.5-15.1-7.3
		C28.6,302.3,25.4,302,23.5,304 M138.4,336.8v34.2h-6.8h-6.8v-34.2v-34.2h6.8h6.8V336.8 M193.2,336.8v34.2h-6.8h-6.8v-34.2v-34.2
		h6.8h6.8V336.8 M247.9,336.8v34.2H241h-6.8v-34.2v-34.2h6.8h6.8V336.8 M302.6,336.8v20.5h-6.8h-6.8v-20.5v-20.5h6.8h6.8V336.8
		 M357.3,336.8v13.7h-6.8h-6.8v-13.7v-13.7h6.8h6.8V336.8 M3.3,331.7C1,334,1,339.7,3.3,342c1.6,1.6,2.9,1.7,27.8,1.7h26.1v-6.8V330
		H31.1C6.2,330,4.9,330.1,3.3,331.7 M23.5,358.7c-1.9,1.9-1.8,9.1,0.2,10.9c2.2,2,4.8,1.8,21.8-1.9c17.5-3.8,16.4-3.3,15.1-7.3
		l-1-3.1H42.2C27.5,357.4,24.6,357.6,23.5,358.7"/>
</g>
</svg>
