<?xml version="1.0" encoding="UTF-8" standalone="no"?>
<svg
   id="artwork"
   version="1.1"
   viewBox="0 0 135 40"
   sodipodi:docname="googleplay.svg"
   width="135"
   height="40"
   inkscape:version="1.4.2 (ebf0e940d0, 2025-05-08)"
   xmlns:inkscape="http://www.inkscape.org/namespaces/inkscape"
   xmlns:sodipodi="http://sodipodi.sourceforge.net/DTD/sodipodi-0.dtd"
   xmlns="http://www.w3.org/2000/svg"
   xmlns:svg="http://www.w3.org/2000/svg">
  <sodipodi:namedview
     id="namedview14"
     pagecolor="#ffffff"
     bordercolor="#000000"
     borderopacity="0.25"
     inkscape:showpageshadow="2"
     inkscape:pageopacity="0.0"
     inkscape:pagecheckerboard="0"
     inkscape:deskcolor="#d1d1d1"
     inkscape:zoom="5.9865354"
     inkscape:cx="51.114707"
     inkscape:cy="16.119507"
     inkscape:window-width="1920"
     inkscape:window-height="1043"
     inkscape:window-x="0"
     inkscape:window-y="0"
     inkscape:window-maximized="1"
     inkscape:current-layer="artwork" />
  <!-- Generator: Adobe Illustrator 29.5.1, SVG Export Plug-In . SVG Version: 2.1.0 Build 141)  -->
  <defs
     id="defs1">
    <style
       id="style1">
      .st0 {
        fill: #4285f4;
      }

      .st1 {
        fill: #a6a6a6;
      }

      .st2 {
        stroke: #fff;
        stroke-miterlimit: 10;
        stroke-width: .2px;
      }

      .st2, .st3, .st4 {
        fill: #fff;
      }

      .st5 {
        fill: #34a853;
      }

      .st6 {
        fill: #fbbc04;
      }

      .st4 {
        fill-opacity: 0;
      }

      .st7 {
        fill: #ea4335;
      }
    </style>
  </defs>
  <rect
     x="0"
     y="0"
     width="135"
     height="40"
     rx="5"
     ry="5"
     id="rect2" />
  <path
     class="st1"
     d="m 130,0.8 c 2.316,0 4.2,1.884 4.2,4.2 v 30 c 0,2.316 -1.884,4.2 -4.2,4.2 H 5 C 2.684,39.2 0.8,37.316 0.8,35 V 5 C 0.8,2.684 2.684,0.8 5,0.8 H 130 M 130,0 H 5 C 2.25,0 0,2.25 0,5 v 30 c 0,2.75 2.25,5 5,5 h 125 c 2.75,0 5,-2.25 5,-5 V 5 c 0,-2.75 -2.25,-5 -5,-5 z"
     id="path2" />
  <g
     id="g9"
     transform="translate(-10,-10)">
    <path
       class="st2"
       d="m 57.418,20.243 c 0,0.838 -0.248,1.505 -0.745,2.003 -0.564,0.592 -1.3,0.888 -2.204,0.888 -0.866,0 -1.602,-0.3 -2.208,-0.9 -0.606,-0.601 -0.909,-1.345 -0.909,-2.233 0,-0.888 0.303,-1.633 0.909,-2.233 0.605,-0.601 1.342,-0.901 2.208,-0.901 0.43,0 0.841,0.084 1.232,0.251 0.391,0.168 0.704,0.391 0.938,0.67 l -0.527,0.528 c -0.397,-0.475 -0.944,-0.712 -1.643,-0.712 -0.632,0 -1.178,0.222 -1.639,0.666 -0.461,0.444 -0.691,1.021 -0.691,1.73 0,0.709 0.23,1.286 0.691,1.73 0.461,0.444 1.007,0.666 1.639,0.666 0.67,0 1.229,-0.223 1.676,-0.67 0.29,-0.291 0.458,-0.696 0.503,-1.215 H 54.469 V 19.79 h 2.907 c 0.028,0.157 0.042,0.307 0.042,0.453 z"
       id="path3" />
    <path
       class="st2"
       d="m 62.028,17.737 h -2.732 v 1.902 h 2.464 v 0.721 h -2.464 v 1.902 h 2.732 v 0.737 h -3.503 v -6 h 3.503 v 0.737 z"
       id="path4" />
    <path
       class="st2"
       d="M 65.279,23 H 64.508 V 17.737 H 62.832 V 17 h 4.123 v 0.737 h -1.676 z"
       id="path5" />
    <path
       class="st2"
       d="m 69.938,23 v -6 h 0.77 v 6 z"
       id="path6" />
    <path
       class="st2"
       d="M 74.128,23 H 73.357 V 17.737 H 71.681 V 17 h 4.123 v 0.737 h -1.676 z"
       id="path7" />
    <path
       class="st2"
       d="m 83.609,22.225 c -0.59,0.607 -1.323,0.909 -2.2,0.909 -0.877,0 -1.61,-0.303 -2.199,-0.909 -0.59,-0.606 -0.884,-1.348 -0.884,-2.225 0,-0.877 0.294,-1.619 0.884,-2.225 0.589,-0.607 1.322,-0.91 2.199,-0.91 0.872,0 1.603,0.305 2.196,0.914 0.592,0.609 0.888,1.349 0.888,2.221 0,0.877 -0.295,1.619 -0.884,2.225 z m -3.83,-0.503 c 0.444,0.45 0.987,0.674 1.63,0.674 0.643,0 1.186,-0.225 1.63,-0.674 0.444,-0.45 0.667,-1.024 0.667,-1.722 0,-0.698 -0.223,-1.273 -0.667,-1.722 -0.443,-0.45 -0.987,-0.674 -1.63,-0.674 -0.643,0 -1.186,0.225 -1.63,0.674 -0.443,0.45 -0.666,1.024 -0.666,1.722 0,0.698 0.223,1.273 0.666,1.722 z"
       id="path8" />
    <path
       class="st2"
       d="m 85.575,23 v -6 h 0.939 l 2.916,4.667 h 0.033 L 89.43,20.511 V 17 h 0.771 v 6 h -0.805 l -3.051,-4.894 h -0.033 l 0.033,1.156 v 3.737 h -0.771 z"
       id="path9" />
  </g>
  <path
     class="st3"
     d="m 68.136,21.752 c -2.352,0 -4.269,1.788 -4.269,4.253 0,2.449 1.917,4.253 4.269,4.253 2.352,0 4.269,-1.804 4.269,-4.253 0,-2.465 -1.917,-4.253 -4.269,-4.253 z m 0,6.83 c -1.289,0 -2.4,-1.063 -2.4,-2.578 0,-1.531 1.112,-2.578 2.4,-2.578 1.288,0 2.4,1.047 2.4,2.578 0,1.514 -1.112,2.578 -2.4,2.578 z m -9.313,-6.83 c -2.352,0 -4.269,1.788 -4.269,4.253 0,2.449 1.917,4.253 4.269,4.253 2.352,0 4.269,-1.804 4.269,-4.253 0,-2.465 -1.917,-4.253 -4.269,-4.253 z m 0,6.83 c -1.289,0 -2.401,-1.063 -2.401,-2.578 0,-1.531 1.112,-2.578 2.401,-2.578 1.289,0 2.4,1.047 2.4,2.578 0,1.514 -1.112,2.578 -2.4,2.578 z M 47.744,23.057 v 1.804 h 4.318 c -0.129,1.015 -0.467,1.756 -0.983,2.272 -0.628,0.628 -1.611,1.321 -3.335,1.321 -2.658,0 -4.736,-2.143 -4.736,-4.801 0,-2.658 2.078,-4.801 4.736,-4.801 1.434,0 2.481,0.564 3.254,1.289 l 1.273,-1.273 c -1.079,-1.031 -2.513,-1.82 -4.527,-1.82 -3.641,0 -6.702,2.964 -6.702,6.605 0,3.641 3.061,6.605 6.702,6.605 1.966,0 3.448,-0.644 4.608,-1.853 1.192,-1.192 1.563,-2.868 1.563,-4.221 0,-0.419 -0.032,-0.805 -0.097,-1.128 h -6.074 z m 45.308,1.401 c -0.354,-0.95 -1.434,-2.707 -3.641,-2.707 -2.191,0 -4.011,1.724 -4.011,4.253 0,2.384 1.804,4.253 4.221,4.253 1.949,0 3.077,-1.192 3.544,-1.885 l -1.45,-0.967 c -0.483,0.709 -1.144,1.176 -2.094,1.176 -0.95,0 -1.627,-0.435 -2.062,-1.289 l 5.687,-2.352 -0.193,-0.483 z m -5.8,1.418 c -0.048,-1.643 1.273,-2.481 2.223,-2.481 0.741,0 1.369,0.37 1.579,0.902 z M 82.629,30 h 1.869 V 17.498 h -1.869 z m -3.062,-7.298 h -0.064 c -0.419,-0.499 -1.224,-0.951 -2.239,-0.951 -2.127,0 -4.076,1.869 -4.076,4.269 0,2.384 1.949,4.237 4.076,4.237 1.015,0 1.82,-0.451 2.239,-0.967 h 0.064 v 0.612 c 0,1.627 -0.87,2.497 -2.272,2.497 -1.144,0 -1.853,-0.822 -2.143,-1.514 l -1.627,0.677 c 0.467,1.128 1.708,2.513 3.77,2.513 2.191,0 4.044,-1.289 4.044,-4.43 v -7.636 h -1.772 z m -2.142,5.88 c -1.289,0 -2.368,-1.079 -2.368,-2.562 0,-1.498 1.079,-2.594 2.368,-2.594 1.273,0 2.272,1.096 2.272,2.594 0,1.482 -0.999,2.562 -2.272,2.562 z M 101.806,17.499 H 97.335 V 30 h 1.866 v -4.736 h 2.605 c 2.068,0 4.101,-1.497 4.101,-3.883 0,-2.386 -2.033,-3.882 -4.101,-3.882 z m 0.048,6.025 H 99.2 v -4.285 h 2.654 c 1.395,0 2.187,1.155 2.187,2.143 0,0.969 -0.792,2.143 -2.187,2.143 z m 11.532,-1.795 c -1.351,0 -2.75,0.595 -3.329,1.914 l 1.657,0.692 c 0.354,-0.692 1.013,-0.917 1.705,-0.917 0.965,0 1.946,0.579 1.962,1.608 v 0.129 c -0.338,-0.193 -1.061,-0.483 -1.946,-0.483 -1.785,0 -3.603,0.981 -3.603,2.815 0,1.673 1.463,2.75 3.104,2.75 1.254,0 1.946,-0.563 2.38,-1.222 h 0.064 v 0.965 h 1.801 v -4.793 c 0,-2.22 -1.657,-3.458 -3.796,-3.458 z m -0.225,6.851 c -0.611,0 -1.464,-0.305 -1.464,-1.061 0,-0.965 1.061,-1.335 1.978,-1.335 0.82,0 1.206,0.177 1.705,0.418 -0.145,1.158 -1.142,1.978 -2.219,1.978 z m 10.582,-6.578 -2.139,5.42 h -0.064 l -2.219,-5.42 h -2.01 l 3.329,7.575 -1.898,4.214 h 1.946 l 5.131,-11.789 h -2.075 z M 106.936,30 h 1.866 V 17.499 h -1.866 z"
     id="path10" />
  <g
     id="g14"
     transform="translate(-10,-10)">
    <path
       class="st7"
       d="m 30.717,29.424 -10.647,11.3 c 0,0 0.001,0.005 0.002,0.007 0.327,1.227 1.447,2.13 2.777,2.13 0.531,0 1.031,-0.144 1.459,-0.396 l 0.034,-0.02 11.984,-6.915 z"
       id="path11" />
    <path
       class="st6"
       d="m 41.488,27.5 -0.01,-0.007 -5.174,-3 -5.829,5.187 5.849,5.848 5.146,-2.969 c 0.902,-0.487 1.515,-1.438 1.515,-2.535 0,-1.09 -0.604,-2.036 -1.498,-2.525 z"
       id="path12" />
    <path
       class="st0"
       d="m 20.07,19.277 c -0.064,0.236 -0.098,0.484 -0.098,0.74 v 19.968 c 0,0.256 0.033,0.504 0.098,0.739 L 31.083,29.713 Z"
       id="path13" />
    <path
       class="st5"
       d="m 30.796,30.001 5.51,-5.509 -11.97,-6.94 c -0.435,-0.261 -0.943,-0.411 -1.486,-0.411 -1.33,0 -2.452,0.905 -2.779,2.134 0,0 0,0.002 0,0.003 l 10.726,10.724 z"
       id="path14" />
  </g>
</svg>
