<?xml version="1.0" encoding="UTF-8"?>
<svg id="Layer_2" data-name="Layer 2" xmlns="http://www.w3.org/2000/svg" viewBox="0 0 78.4 34.53">
  <defs>
    <style>
      .cls-1, .cls-2 {
        stroke-width: 0px;
      }

      .cls-2 {
        fill: #149dd8;
      }
    </style>
  </defs>
  <g id="Layer_2-2" data-name="Layer 2">
    <path class="cls-1" d="M0,.08v34.46h39.16V.08H0ZM27.88,6.46h-.84c-.58,0-1.01.22-1.28.66-.27.44-.4,1.12-.4,2.05v12.07c0,2.45-.71,4.38-2.12,5.78-1.41,1.4-3.55,2.1-6.41,2.1-2.65,0-4.77-.72-6.35-2.15-1.58-1.43-2.38-3.39-2.38-5.89V6.46h-2.52v-.58h10.18v.58h-2.62v14.21c0,2.36.39,4.17,1.18,5.42.79,1.25,2.29,2.08,4.48,1.88,1.73-.16,2.72-.56,3.82-1.67,1.1-1.12,1.65-2.74,1.65-4.85v-12.26c0-.97-.16-1.66-.47-2.08-.31-.42-.56-.63-1.38-.63h-.94v-.58h6.4v.58ZM33.01,28.27c-.44.44-.98.67-1.62.67s-1.19-.22-1.63-.67c-.44-.44-.67-.98-.67-1.63s.22-1.18.67-1.62c.44-.44.99-.67,1.63-.67s1.18.22,1.62.67c.44.44.67.99.67,1.62s-.22,1.18-.67,1.63Z"/>
    <path class="cls-2" d="M71.72,5.12c-.37-.27-.47-.22-.09.11,2.24,2,5.35,5.9,5.35,12.77,0,8.19-6.82,14.25-15.01,14.25-1.61,0-3.09-.26-4.46-.75-.67-.31-.57-.87-.45-1.15.24-.63.39-1.31.39-2.03,0-3.2-2.6-5.8-5.8-5.8-.68,0-1.33.13-1.93.35-.28.1-.85.25-1.12-.38-.58-1.35-.8-2.84-.8-4.49,0-.46.03-.93.06-1.38.61-6.74,5.68-12.4,12.55-12.4,7.59,0,11.44,4.35,13.06,6.96.18.32.31.28.1-.12-2.53-4.88-7.59-8.18-13.16-8.18-.65,0-1.3.04-1.93.13-.77.16-.89-.48-.18-.71,1.64-.53,3.37-.91,5.24-.91,7.53,0,12.27,3.85,14.23,5.88.42.47.44.27.12-.14-3.44-4.46-8.65-7.14-14.36-7.14-9.41,0-17.15,7.26-17.92,16.48-.05.5-.08,1.01-.08,1.52,0,2.12.39,4.21,1.11,6.17.24.59,0,1.22-.12,1.46-.43.8-.68,1.72-.68,2.69,0,3.2,2.6,5.8,5.8,5.8.98,0,1.89-.25,2.7-.69.28-.15.86-.42,1.69-.12,1.89.69,3.87,1.12,5.94,1.12,9.06,0,16.43-7.37,16.43-16.43,0-5.3-2.51-9.89-6.67-12.88Z"/>
  </g>
</svg>