<svg enable-background="new 0 0 256 256" viewBox="30 73 196 110" xmlns="http://www.w3.org/2000/svg"><g fill="#75171e" transform="translate(30.574 73.253)"><path d="m191.6 20.3h-18.5c-1.6 0-2.8-1.3-2.8-2.8v-13.2c0-1.6 1.3-2.8 2.8-2.8h18.5c1.6 0 2.8 1.3 2.8 2.8v13.1c0 1.6-1.2 2.9-2.8 2.9zm-.6 87.2h-17.3c-1.6 0-2.8-1.3-2.8-2.8v-75.1c0-1.6 1.3-2.8 2.8-2.8h17.3c1.6 0 2.8 1.3 2.8 2.8v75.2c0 1.5-1.2 2.7-2.8 2.7z"/><path d="m3.1 1.5h19c1.4 0 2.6 1.2 2.6 2.7v.2 62.9c0 15.8 5.3 19.6 16.9 19.6 5.6 0 11.1-.2 16.6-.8v-81.8c-.1-1.5 1.1-2.7 2.6-2.8h21.7v2.7 92.2c0 6.3-1.7 7.9-7.3 8.7-10.3 1.3-20.6 2.1-31 2.4-27.6 0-43.9-7.6-43.9-40.3v-62.9c.1-1.5 1.2-2.7 2.7-2.8z"/><path d="m153.3 41.8v62.9c.1 1.5-1.1 2.7-2.6 2.8h-2.3-16.8c-1.4 0-2.6-1.2-2.5-2.7 0-.1 0-.1 0-.2v-62.8c0-15.8-5.3-19.6-16.9-19.6h-9.6c-1.6 0-2.9-1.3-2.9-2.9v-17.8h9.8c27.4 0 43.8 7.6 43.8 40.3z"/></g></svg>