<svg version="1.1" id="Layer_1" xmlns="http://www.w3.org/2000/svg" x="0" y="0" viewBox="0 0 800 817.4" style="enable-background:new 0 0 800 817.4" xml:space="preserve">
    <style>
        .st0{fill:#75171e}.st2{fill:#fff}
    </style>
    <g id="g56">
        <path style="fill:#75171e" class="st0" d="M53.3 325.9h-4V208.3l118.1-67.6 2 3.4-116.1 66.6zM49.3 325.9h4v17.8h-4zM158.4 673.2 49.3 610.7V475.3h4v133l107.1 61.5z"/>
        <path transform="rotate(-60.184 163.814 674.093)" class="st0" d="M161.8 668.9h4v10.3h-4z"/>
        <path style="fill:#75171e" class="st0" d="m398.6 811.8-118-67.7 2-3.4 116 66.5L521 737.1l2 3.4zM633.1 678.3l-2-3.4 116-66.6V487.6h4v123.1l-1 .5zM751.1 343.7h-4v-133l-116-66.6 2-3.4 118 67.6zM524.2 81.9 401.8 11.8 279.4 81.9l-2-3.4L401.8 7.2l124.4 71.3z"/>
        <path class="st0" d="m642 673.2-2-3.4 107.1-61.5v-133h4v135.4l-1 .5z"/>
    </g>
    <path style="fill:#b33636" d="m800.2 409.5-200 343.9h-400L.2 409.5l34.6-59.6L200.2 65.6h400z" id="g52"/>
    <path style="fill:#fff" class="st2" d="M448.9 578.2h-59.1c-4.8 0-7.9-3.9-7.9-8.8V374.3c0-49-16.3-60.8-52.5-60.8-18.1 0-37.9.9-51.6 2.6v253.4c.2 4.7-3.5 8.6-8.1 8.7h-58.9c-4.7 0-8.4-3.8-8.4-8.5v-286c0-19.7 5.3-24.5 22.5-27.1 23.4-3.5 73.6-7.4 96.1-7.4 85.5 0 136.2 23.6 136.2 125.2v195.2c.2 4.7-3.5 8.6-8.1 8.7 0-.1-.1-.1-.2-.1zM589.1 299h-57.3c-4.8 0-8.8-3.9-8.8-8.8v-40.7c0-4.8 4-8.8 8.8-8.8h57.3c4.8 0 8.8 3.9 8.8 8.8v40.7c0 4.9-3.9 8.8-8.8 8.8zm-1.8 279.2h-53.8c-4.8 0-8.8-3.9-8.8-8.8V336.2c0-4.8 4-8.8 8.8-8.8h53.8c4.8 0 8.8 3.9 8.8 8.8v233.3c0 4.8-3.9 8.7-8.8 8.7zM295 726.6c-2.6.6-5.3 1-7.9 1-6.1 0-9.4-3.5-9.4-9.5v-2.9c0-6 3.3-9.5 9.4-9.5 2.7 0 5.3.4 7.9 1 1 .2 1.2.5 1.2 1.1v17.8c0 .5-.1.8-1.2 1zm-4.8-15.8c-1-.1-2-.2-3.1-.2-2.7 0-3.4 1.9-3.4 4.5v2.9c0 2.6.7 4.6 3.4 4.6 1 0 2.1-.1 3.1-.2v-11.6zM342.4 718.5h-12v.1c0 2.1.9 4 3.9 4 2.4 0 5.7-.2 7.2-.3h.1c.4 0 .7.2.7.6v2.8c0 .6-.1.8-.8 1-2.5.6-5.1.9-7.7.9-4.5 0-9.4-2.4-9.4-9.5v-2.6c0-6 3.5-9.8 9.5-9.8 6.1 0 9.2 4.2 9.2 9.8v2.2c.1.4-.2.8-.7.8zm-5.1-3.9c0-2.8-1.3-4.1-3.4-4.1s-3.5 1.4-3.5 4.1v.2h6.8v-.2h.1zM382.6 710.4h-5.1v16c0 .4-.4.8-.8.8h-4.5c-.4 0-.8-.4-.8-.8v-22c0-5.1 3.5-6.3 7.3-6.3 1.4 0 2.7.1 4.1.3.4.1.6.2.6.4v3.1c0 .4-.1.6-.5.6H379c-1.2 0-1.4.7-1.4 1.8v1.5h5.1c.4 0 .8.3.8.8v3c-.2.5-.5.8-.9.8zM428.2 718.5h-11.9v.1c0 2.1.9 4 3.9 4 2.4 0 5.7-.2 7.2-.3h.1c.4 0 .7.2.7.6v2.8c0 .6-.1.8-.8 1-2.5.6-5.1.9-7.7.9-4.5 0-9.4-2.4-9.4-9.5v-2.6c0-6 3.5-9.8 9.5-9.8 6.1 0 9.2 4.2 9.2 9.8v2.2c0 .4-.3.8-.8.8zm-5.1-3.9c0-2.8-1.3-4.1-3.4-4.1s-3.5 1.4-3.5 4.1v.2h6.8v-.2h.1zM466.6 727.6h-.6c-2.4 0-9-.7-9-9.4v-11.4c0-.4.3-.8.7-.8h4.6c.4 0 .8.4.8.8v11.4c0 3.5 1.1 4.3 2.9 4.3h.5c1.8 0 2.9-.8 2.9-4.3v-11.4c0-.4.3-.8.8-.8h4.6c.4 0 .7.4.7.8v11.4c0 8.7-6.6 9.4-8.9 9.4zM513.3 727.6c-1 0-2.1-.1-3.1-.3v6.4c0 .4-.3.7-.8.7h-4.5c-.4 0-.8-.3-.8-.7v-26.1c0-.6.1-.8 1.2-1.1 2.6-.6 5.3-1 8-1 6.1 0 9.4 3.5 9.4 9.5v2.9c0 6-3.1 9.7-9.4 9.7zm3.3-12.5c0-2.6-.7-4.5-3.3-4.5-1 0-2.1 0-3.1.2v11.6c1 .1 2 .2 3.1.2 2.7 0 3.3-2 3.3-4.6v-2.9z"/>
    <path style="fill:none;stroke:#fff;stroke-width:2;stroke-miterlimit:10" d="M220.6 716.9h30.2l-4.4-.1h-24.9L42.8 409.5l30.9-53.3 147.8-254.1h357.4l178.8 307.4-178.8 307.3h-30.1"/>
</svg>

