<?xml version="1.0" encoding="utf-8"?>
<!-- Generator: Adobe Illustrator 22.0.1, SVG Export Plug-In . SVG Version: 6.00 Build 0)  -->
<svg version="1.1" id="Layer_1" xmlns="http://www.w3.org/2000/svg" xmlns:xlink="http://www.w3.org/1999/xlink" x="0px" y="0px"
	 viewBox="0 0 800 817.4" style="enable-background:new 0 0 800 817.4;" xml:space="preserve">
<style type="text/css">
	.st0{fill:#75171E;}
	.st1{fill:#B33636;}
	.st2{fill:#FFFFFF;}
	.st3{fill:none;stroke:#FFFFFF;stroke-width:2;stroke-miterlimit:10;}
</style>
<title>logo2</title>
<g id="g56">
	<polygon class="st0" points="53.3,325.9 49.3,325.9 49.3,208.3 167.4,140.7 169.4,144.1 53.3,210.7 	"/>
	<rect x="49.3" y="325.9" class="st0" width="4" height="17.8"/>
	<polygon class="st0" points="158.4,673.2 49.3,610.7 49.3,475.3 53.3,475.3 53.3,608.3 160.4,669.8 	"/>
	
		<rect x="161.8" y="668.9" transform="matrix(0.4972 -0.8676 0.8676 0.4972 -502.4824 481.0378)" class="st0" width="4" height="10.3"/>
	<polygon class="st0" points="398.6,811.8 280.6,744.1 282.6,740.7 398.6,807.2 521,737.1 523,740.5 	"/>
	<polygon class="st0" points="633.1,678.3 631.1,674.9 747.1,608.3 747.1,487.6 751.1,487.6 751.1,610.7 750.1,611.2 	"/>
	<polygon class="st0" points="751.1,343.7 747.1,343.7 747.1,210.7 631.1,144.1 633.1,140.7 751.1,208.3 	"/>
	<polygon class="st0" points="524.2,81.9 401.8,11.8 279.4,81.9 277.4,78.5 401.8,7.2 526.2,78.5 	"/>
	<polygon class="st0" points="642,673.2 640,669.8 747.1,608.3 747.1,475.3 751.1,475.3 751.1,610.7 750.1,611.2 	"/>
</g>
<g id="g52">
	<polygon class="st1" points="800.2,409.5 600.2,753.4 200.2,753.4 0.2,409.5 34.8,349.9 200.2,65.6 600.2,65.6 	"/>
</g>
<path class="st2" d="M448.9,578.2h-59.1c-4.8,0-7.9-3.9-7.9-8.8V374.3c0-49-16.3-60.8-52.5-60.8c-18.1,0-37.9,0.9-51.6,2.6v253.4
	c0.2,4.7-3.5,8.6-8.1,8.7c-0.1,0-0.2,0-0.3,0h-58.6c-4.7,0-8.4-3.8-8.4-8.5c0-0.1,0-0.2,0-0.3V283.7c0-19.7,5.3-24.5,22.5-27.1
	c23.4-3.5,73.6-7.4,96.1-7.4c85.5,0,136.2,23.6,136.2,125.2v195.2c0.2,4.7-3.5,8.6-8.1,8.7C449.1,578.2,449,578.2,448.9,578.2z"/>
<path class="st2" d="M589.1,299h-57.3c-4.8,0-8.8-3.9-8.8-8.8v-40.7c0-4.8,4-8.8,8.8-8.8h57.3c4.8,0,8.8,3.9,8.8,8.8v40.7
	C597.9,295.1,594,299,589.1,299z M587.3,578.2h-53.8c-4.8,0-8.8-3.9-8.8-8.8V336.2c0-4.8,4-8.8,8.8-8.8h53.8c4.8,0,8.8,3.9,8.8,8.8
	v233.3C596.1,574.3,592.2,578.2,587.3,578.2L587.3,578.2z"/>
<path class="st2" d="M295,726.6c-2.6,0.6-5.3,1-7.9,1c-6.1,0-9.4-3.5-9.4-9.5v-2.9c0-6,3.3-9.5,9.4-9.5c2.7,0,5.3,0.4,7.9,1
	c1,0.2,1.2,0.5,1.2,1.1v17.8C296.2,726.1,296.1,726.4,295,726.6z M290.2,710.8c-1-0.1-2-0.2-3.1-0.2c-2.7,0-3.4,1.9-3.4,4.5v2.9
	c0,2.6,0.7,4.6,3.4,4.6c1,0,2.1-0.1,3.1-0.2V710.8z"/>
<path class="st2" d="M342.4,718.5h-12v0.1c0,2.1,0.9,4,3.9,4c2.4,0,5.7-0.2,7.2-0.3h0.1c0.4,0,0.7,0.2,0.7,0.6v2.8
	c0,0.6-0.1,0.8-0.8,1c-2.5,0.6-5.1,0.9-7.7,0.9c-4.5,0-9.4-2.4-9.4-9.5v-2.6c0-6,3.5-9.8,9.5-9.8c6.1,0,9.2,4.2,9.2,9.8v2.2
	C343.2,718.1,342.9,718.5,342.4,718.5z M337.3,714.6c0-2.8-1.3-4.1-3.4-4.1s-3.5,1.4-3.5,4.1v0.2h6.8v-0.2H337.3z"/>
<path class="st2" d="M382.6,710.4h-5.1v16c0,0.4-0.4,0.8-0.8,0.8h-4.5c-0.4,0-0.8-0.4-0.8-0.8v-22c0-5.1,3.5-6.3,7.3-6.3
	c1.4,0,2.7,0.1,4.1,0.3c0.4,0.1,0.6,0.2,0.6,0.4v3.1c0,0.4-0.1,0.6-0.5,0.6H379c-1.2,0-1.4,0.7-1.4,1.8v1.5h5.1
	c0.4,0,0.8,0.3,0.8,0.8v3C383.3,710.1,383,710.4,382.6,710.4L382.6,710.4z"/>
<path class="st2" d="M428.2,718.5h-11.9v0.1c0,2.1,0.9,4,3.9,4c2.4,0,5.7-0.2,7.2-0.3h0.1c0.4,0,0.7,0.2,0.7,0.6v2.8
	c0,0.6-0.1,0.8-0.8,1c-2.5,0.6-5.1,0.9-7.7,0.9c-4.5,0-9.4-2.4-9.4-9.5v-2.6c0-6,3.5-9.8,9.5-9.8c6.1,0,9.2,4.2,9.2,9.8v2.2
	C429,718.1,428.7,718.5,428.2,718.5z M423.1,714.6c0-2.8-1.3-4.1-3.4-4.1s-3.5,1.4-3.5,4.1v0.2h6.8v-0.2H423.1z"/>
<path class="st2" d="M466.6,727.6H466c-2.4,0-9-0.7-9-9.4v-11.4c0-0.4,0.3-0.8,0.7-0.8h4.6c0.4,0,0.8,0.4,0.8,0.8v11.4
	c0,3.5,1.1,4.3,2.9,4.3h0.5c1.8,0,2.9-0.8,2.9-4.3v-11.4c0-0.4,0.3-0.8,0.8-0.8h4.6c0.4,0,0.7,0.4,0.7,0.8v11.4
	C475.5,726.9,468.9,727.6,466.6,727.6z"/>
<path class="st2" d="M513.3,727.6c-1,0-2.1-0.1-3.1-0.3v6.4c0,0.4-0.3,0.7-0.8,0.7h-4.5c-0.4,0-0.8-0.3-0.8-0.7v-26.1
	c0-0.6,0.1-0.8,1.2-1.1c2.6-0.6,5.3-1,8-1c6.1,0,9.4,3.5,9.4,9.5v2.9C522.7,723.9,519.6,727.6,513.3,727.6z M516.6,715.1
	c0-2.6-0.7-4.5-3.3-4.5c-1,0-2.1,0-3.1,0.2v11.6c1,0.1,2,0.2,3.1,0.2c2.7,0,3.3-2,3.3-4.6V715.1z"/>
<polyline class="st3" points="220.6,716.9 250.8,716.9 246.4,716.8 221.5,716.8 42.8,409.5 73.7,356.2 221.5,102.1 578.9,102.1 
	757.7,409.5 578.9,716.8 548.8,716.8 "/>
</svg>
