<?xml version="1.0" encoding="utf-8"?>
<!-- Generator: Adobe Illustrator 23.1.1, SVG Export Plug-In . SVG Version: 6.00 Build 0)  -->
<svg version="1.1" id="Camada_1" xmlns="http://www.w3.org/2000/svg" xmlns:xlink="http://www.w3.org/1999/xlink" x="0px" y="0px"
	 viewBox="0 0 358.1 76.8" style="enable-background:new 0 0 358.1 76.8;" xml:space="preserve">
<style type="text/css">
	.st0{enable-background:new    ;}
	.st1{fill:#75161E;}
</style>
<g class="st0">
	<path class="st1" d="M32.5,41.8c0,2.6-0.3,5-0.8,7.1c-0.5,2.1-1.4,4-2.5,5.6c-1.2,1.6-2.6,2.8-4.4,3.6c-1.8,0.8-3.9,1.3-6.4,1.3
		c-2.1,0-4.2-0.1-6.4-0.4c-2.2-0.3-4.1-0.6-5.7-0.9c-0.4-0.1-0.7-0.2-0.9-0.4c-0.1-0.2-0.2-0.5-0.2-0.9V6.6c0-0.4,0.1-0.7,0.3-1
		c0.2-0.3,0.5-0.4,0.9-0.4H7c0.4,0,0.7,0.1,0.9,0.4c0.2,0.3,0.3,0.6,0.3,1v14.3c0.7-0.1,1.5-0.3,2.4-0.4s1.8-0.3,2.7-0.4
		c0.9-0.1,1.8-0.2,2.6-0.2c0.8,0,1.6-0.1,2.4-0.1c9.5,0,14.2,5.8,14.2,17.3V41.8z M29.3,37.1c0-4.8-0.8-8.5-2.5-10.9
		c-1.7-2.4-4.5-3.6-8.5-3.6c-0.7,0-1.5,0-2.4,0.1c-0.9,0-1.8,0.1-2.7,0.2c-0.9,0.1-1.8,0.2-2.7,0.3c-0.9,0.1-1.6,0.3-2.3,0.4v32.2
		c1.3,0.2,2.9,0.5,4.7,0.7c1.8,0.2,3.6,0.3,5.4,0.3c4.1,0,6.9-1.3,8.5-3.9c1.6-2.6,2.5-6.2,2.5-10.9V37.1z"/>
	<path class="st1" d="M67.5,66.1c-0.6,1.8-1.4,3.2-2.5,4.3c-1.1,1-2.5,1.7-4.1,2.1c-1.6,0.4-3.5,0.6-5.6,0.6c-2.5,0-4.7-0.1-6.8-0.3
		c-2.1-0.2-3.5-0.4-4.2-0.5c-0.5-0.1-0.9-0.3-1.1-0.5c-0.2-0.2-0.3-0.5-0.3-0.9v-0.4c0-0.7,0.4-1.1,1.2-1.1h0.3
		c0.4,0.1,1.1,0.2,1.8,0.3c0.8,0.1,1.7,0.2,2.7,0.3c1,0.1,2,0.1,3.1,0.2s2.2,0.1,3.3,0.1c1.9,0,3.5-0.1,4.7-0.4
		c1.3-0.3,2.3-0.8,3.1-1.7c0.8-0.8,1.3-2,1.7-3.4c0.3-1.5,0.5-3.4,0.5-5.7v-0.8c-0.5,0.1-1.2,0.3-2,0.4c-0.8,0.1-1.6,0.3-2.5,0.4
		c-0.9,0.1-1.8,0.2-2.6,0.3c-0.9,0-1.6,0.1-2.2,0.1c-1.6,0-3.3-0.2-5.1-0.5c-1.8-0.3-3.4-1.1-4.9-2.3c-1.5-1.2-2.7-3-3.6-5.3
		c-0.9-2.3-1.4-5.4-1.4-9.3V21.6c0-0.4,0.1-0.7,0.4-1c0.3-0.3,0.6-0.4,1-0.4h0.3c0.4,0,0.7,0.1,1,0.4c0.3,0.3,0.4,0.6,0.4,1V42
		c0,3.1,0.3,5.7,0.9,7.6c0.6,1.9,1.4,3.4,2.5,4.5c1,1,2.3,1.7,3.7,2.1c1.4,0.3,3,0.5,4.7,0.5c0.6,0,1.3,0,2.1-0.1
		c0.8,0,1.7-0.1,2.5-0.2s1.7-0.2,2.5-0.4c0.8-0.1,1.5-0.3,2.1-0.4v-34c0-0.4,0.1-0.7,0.4-1c0.3-0.3,0.6-0.4,1-0.4h0.3
		c0.4,0,0.7,0.1,1,0.4c0.3,0.3,0.4,0.6,0.4,1v37.5C68.3,62,68,64.3,67.5,66.1z"/>
</g>
<g class="st0">
	<path class="st1" d="M127.3,59h-3.8c-0.8,0-1.3-0.7-1.3-1.4V31.7c0-5.4-1.4-7.5-6.3-7.5h-5.1c-4.9,0-6.3,2.1-6.3,7.5v25.9
		c0,0.8-0.5,1.4-1.3,1.4h-3.8c-0.8,0-1.3-0.7-1.3-1.4V31.7c0-11.2,7.8-13,12.7-13h5.1c4.9,0,12.7,1.9,12.7,13v25.9
		C128.6,58.3,128.1,59,127.3,59z"/>
	<path class="st1" d="M144.3,12.8h-3.7c-0.8,0-1.4-0.7-1.4-1.4V5.5c0-0.8,0.7-1.4,1.4-1.4h3.7c0.8,0,1.4,0.7,1.4,1.4v5.8
		C145.8,12.1,145.1,12.8,144.3,12.8z M144.2,59h-3.5c-0.8,0-1.4-0.7-1.4-1.4V20.6c0-0.8,0.7-1.4,1.4-1.4h3.5c0.8,0,1.4,0.7,1.4,1.4
		v36.9C145.6,58.3,145,59,144.2,59z"/>
</g>
<g class="st0">
	<path class="st1" d="M182.8,56.7c0,0.4-0.1,0.7-0.2,0.9c-0.1,0.2-0.4,0.3-0.9,0.4c-1.6,0.3-3.5,0.7-5.7,0.9
		c-2.2,0.3-4.4,0.4-6.4,0.4c-2.5,0-4.7-0.4-6.4-1.3c-1.8-0.8-3.3-2.1-4.4-3.6c-1.2-1.6-2-3.4-2.5-5.6c-0.5-2.1-0.8-4.5-0.8-7.1v-4.5
		c0-2.6,0.3-5,0.8-7.1c0.5-2.1,1.4-4,2.5-5.6c1.2-1.6,2.6-2.8,4.4-3.6c1.8-0.8,3.9-1.3,6.4-1.3c2.1,0,4.2,0.1,6.4,0.4
		c2.2,0.3,4.1,0.6,5.7,0.9c0.4,0.1,0.7,0.2,0.9,0.4c0.1,0.2,0.2,0.5,0.2,0.9V56.7z M179.6,23.5c-1.3-0.2-2.9-0.5-4.7-0.7
		c-1.8-0.2-3.6-0.3-5.4-0.3c-4.1,0-6.9,1.3-8.5,3.9c-1.6,2.6-2.5,6.2-2.5,10.9v4.5c0,4.7,0.8,8.3,2.5,10.9c1.6,2.6,4.5,3.9,8.5,3.9
		c1.7,0,3.5-0.1,5.4-0.3c1.8-0.2,3.4-0.4,4.7-0.7V23.5z"/>
	<path class="st1" d="M220.9,38.9c0,0.4-0.1,0.7-0.4,1c-0.3,0.3-0.6,0.4-1,0.4h-24.5v1.5c0,3,0.3,5.5,1,7.5c0.7,1.9,1.6,3.4,2.8,4.5
		c1.2,1.1,2.6,1.8,4.2,2.2c1.6,0.4,3.3,0.6,5.1,0.6c1.6,0,3.3-0.1,5.2-0.3c1.9-0.2,3.7-0.5,5.5-0.9c0.4-0.1,0.7-0.1,1.1,0
		c0.3,0.1,0.5,0.4,0.5,0.9v0.5c0,0.4-0.1,0.7-0.3,0.9c-0.2,0.2-0.6,0.4-1.1,0.5c-1.7,0.4-3.6,0.7-5.5,0.9c-1.9,0.2-3.7,0.3-5.4,0.3
		c-2.3,0-4.4-0.3-6.3-0.8c-2-0.6-3.7-1.5-5.2-2.8c-1.5-1.3-2.7-3.1-3.5-5.4c-0.8-2.3-1.3-5.1-1.3-8.5v-4.8c0-2.5,0.3-4.8,0.9-6.9
		c0.6-2.1,1.6-3.9,2.8-5.5c1.2-1.5,2.8-2.8,4.6-3.6c1.8-0.9,3.9-1.3,6.3-1.3c2.5,0,4.7,0.4,6.5,1.2c1.8,0.8,3.3,2,4.5,3.5
		c1.2,1.5,2.1,3.3,2.6,5.5c0.6,2.1,0.8,4.5,0.8,7V38.9z M217.7,37c0-4.6-0.8-8.1-2.5-10.6s-4.6-3.8-8.7-3.8c-2,0-3.8,0.4-5.2,1
		c-1.4,0.7-2.6,1.7-3.5,3c-0.9,1.3-1.6,2.8-2.1,4.6c-0.4,1.8-0.7,3.7-0.7,5.9v0.4h22.7V37z"/>
	<path class="st1" d="M245.4,7.6h-5.5c-1.2,0-2.2,0.1-3.1,0.2c-0.8,0.1-1.5,0.4-2.1,0.9c-0.6,0.5-1,1.1-1.2,2
		c-0.2,0.8-0.4,2-0.4,3.4v6h12.2c0.9,0,1.4,0.4,1.4,1.2v0.7c0,0.8-0.5,1.2-1.4,1.2h-12.2v35c0,0.4-0.1,0.7-0.4,1
		c-0.2,0.3-0.6,0.4-0.9,0.4h-0.5c-0.4,0-0.7-0.1-1-0.4c-0.3-0.3-0.4-0.6-0.4-1v-44c0-3.6,0.9-6,2.6-7.3c1.7-1.3,4.2-2,7.4-2
		c1.1,0,2.2,0,3.2,0c1,0,1.8,0.1,2.3,0.2c0.7,0.1,1.1,0.2,1.3,0.4c0.2,0.2,0.3,0.4,0.3,0.7v0.5C246.9,7.3,246.4,7.6,245.4,7.6z"/>
	<path class="st1" d="M278.4,38.9c0,0.4-0.1,0.7-0.4,1c-0.3,0.3-0.6,0.4-1,0.4h-24.5v1.5c0,3,0.3,5.5,1,7.5c0.7,1.9,1.6,3.4,2.8,4.5
		c1.2,1.1,2.6,1.8,4.2,2.2c1.6,0.4,3.3,0.6,5.1,0.6c1.6,0,3.3-0.1,5.2-0.3c1.9-0.2,3.7-0.5,5.5-0.9c0.4-0.1,0.7-0.1,1,0
		c0.3,0.1,0.5,0.4,0.5,0.9v0.5c0,0.4-0.1,0.7-0.3,0.9c-0.2,0.2-0.6,0.4-1.1,0.5c-1.7,0.4-3.6,0.7-5.5,0.9c-1.9,0.2-3.7,0.3-5.4,0.3
		c-2.3,0-4.4-0.3-6.3-0.8c-2-0.6-3.7-1.5-5.2-2.8c-1.5-1.3-2.7-3.1-3.5-5.4c-0.8-2.3-1.3-5.1-1.3-8.5v-4.8c0-2.5,0.3-4.8,0.9-6.9
		c0.6-2.1,1.6-3.9,2.8-5.5c1.2-1.5,2.8-2.8,4.6-3.6s3.9-1.3,6.3-1.3c2.5,0,4.7,0.4,6.5,1.2c1.8,0.8,3.3,2,4.5,3.5
		c1.2,1.5,2.1,3.3,2.6,5.5c0.6,2.1,0.8,4.5,0.8,7V38.9z M275.3,37c0-4.6-0.8-8.1-2.5-10.6c-1.7-2.5-4.6-3.8-8.7-3.8
		c-2,0-3.8,0.4-5.2,1c-1.4,0.7-2.6,1.7-3.5,3c-0.9,1.3-1.6,2.8-2.1,4.6c-0.4,1.8-0.7,3.7-0.7,5.9v0.4h22.7V37z"/>
	<path class="st1" d="M313.4,52.2c-0.9,1.9-2,3.4-3.4,4.5c-1.4,1.1-2.8,1.8-4.3,2.2c-1.5,0.4-2.9,0.6-4.1,0.6h-1.4
		c-1.3,0-2.6-0.2-4.1-0.6c-1.5-0.4-2.9-1.1-4.3-2.2c-1.4-1.1-2.5-2.6-3.4-4.5c-0.9-1.9-1.3-4.3-1.3-7.3V21.5c0-0.4,0.1-0.7,0.3-1
		c0.2-0.3,0.5-0.4,0.9-0.4h0.7c0.4,0,0.7,0.1,0.9,0.4c0.2,0.3,0.3,0.6,0.3,1v23.4c0,2.3,0.3,4.2,0.9,5.7c0.6,1.5,1.3,2.7,2.2,3.5
		s2,1.5,3.2,1.8c1.2,0.3,2.4,0.5,3.7,0.5h1.4c1.2,0,2.4-0.2,3.6-0.5c1.2-0.3,2.3-0.9,3.2-1.8s1.7-2.1,2.2-3.5
		c0.6-1.5,0.9-3.4,0.9-5.7V21.5c0-0.4,0.1-0.7,0.3-1c0.2-0.3,0.5-0.4,0.9-0.4h0.7c0.4,0,0.7,0.1,0.9,0.4c0.2,0.3,0.3,0.6,0.3,1v23.4
		C314.7,47.9,314.3,50.3,313.4,52.2z"/>
	<path class="st1" d="M352,42.1c0,11.5-4.7,17.3-14.2,17.3c-0.7,0-1.5,0-2.4-0.1c-0.8,0-1.7-0.1-2.6-0.2c-0.9-0.1-1.8-0.2-2.7-0.4
		c-0.9-0.1-1.7-0.3-2.4-0.4v13.4c0,0.4-0.1,0.7-0.3,1c-0.2,0.3-0.5,0.4-0.9,0.4h-0.7c-0.4,0-0.7-0.1-0.9-0.4c-0.2-0.3-0.3-0.6-0.3-1
		V22.5c0-0.4,0.1-0.7,0.2-0.9c0.1-0.2,0.4-0.3,0.9-0.4c1.6-0.3,3.5-0.7,5.7-0.9c2.2-0.3,4.4-0.4,6.4-0.4c2.5,0,4.7,0.4,6.4,1.3
		c1.8,0.8,3.3,2.1,4.4,3.6c1.2,1.6,2,3.4,2.5,5.6c0.5,2.1,0.8,4.5,0.8,7.1V42.1z M348.8,37.3c0-4.7-0.8-8.3-2.5-10.9
		c-1.6-2.6-4.5-3.9-8.5-3.9c-1.7,0-3.5,0.1-5.4,0.3c-1.8,0.2-3.4,0.4-4.7,0.7v32.2c0.7,0.1,1.4,0.3,2.3,0.4c0.9,0.1,1.8,0.2,2.7,0.3
		c0.9,0.1,1.8,0.1,2.7,0.2c0.9,0,1.7,0.1,2.4,0.1c4,0,6.8-1.2,8.5-3.6c1.7-2.4,2.5-6,2.5-10.9V37.3z"/>
</g>
</svg>
