<?xml version="1.0" encoding="utf-8"?>
<!-- Generator: Adobe Illustrator 22.0.1, SVG Export Plug-In . SVG Version: 6.00 Build 0)  -->
<svg version="1.1" id="Layer_1" xmlns="http://www.w3.org/2000/svg" xmlns:xlink="http://www.w3.org/1999/xlink" x="0px" y="0px"
	 viewBox="0 0 800 817.4" style="enable-background:new 0 0 800 817.4;" xml:space="preserve">
<style type="text/css">
	.st0{fill:#FFFFFF;}
</style>
<g>
	<path class="st0" d="M333.9,710.5c-2.1,0-3.4,1.4-3.4,4.1v0.2h6.8v-0.2C337.3,711.8,336,710.5,333.9,710.5z"/>
	<path class="st0" d="M283.7,715.1v2.9c0,2.6,0.7,4.6,3.4,4.6c1.2,0,2.4-0.1,3.1-0.2v-11.6c-0.7-0.1-1.8-0.2-3.1-0.2
		C284.5,710.6,283.7,712.5,283.7,715.1z"/>
	<path class="st0" d="M419.7,710.5c-2.1,0-3.4,1.4-3.4,4.1v0.2h6.8v-0.2C423.1,711.8,421.8,710.5,419.7,710.5z"/>
	<path class="st0" d="M599.2,59.8h-400L33.9,344.1l-34.6,59.6l200,343.9h400l200-343.9L599.2,59.8z M296.2,725.5
		c0,0.6-0.2,0.9-1.2,1.1c-2.1,0.5-5.1,1-7.9,1c-6.1,0-9.4-3.5-9.4-9.5v-2.9c0-6,3.3-9.5,9.4-9.5c2.9,0,5.8,0.4,7.9,1
		c1,0.2,1.2,0.5,1.2,1.1V725.5z M343.2,717.6c0,0.6-0.3,0.9-0.8,0.9h-11.9v0.1c0,2.1,0.9,4.1,3.9,4.1c2.4,0,5.7-0.2,7.2-0.3h0.1
		c0.4,0,0.7,0.2,0.7,0.6v2.8c0,0.6-0.2,0.9-0.8,1c-2.4,0.6-4.4,0.9-7.7,0.9c-4.5,0-9.4-2.4-9.4-9.6v-2.6c0-6,3.5-9.8,9.5-9.8
		c6.1,0,9.3,4.2,9.3,9.8v2.1H343.2z M383.3,702.1c0,0.4-0.1,0.6-0.5,0.6h-3.9c-1.2,0-1.4,0.7-1.4,1.8v1.5h5.1c0.4,0,0.7,0.3,0.7,0.7
		v3c0,0.4-0.3,0.7-0.7,0.7h-5.1v16c0,0.4-0.4,0.8-0.8,0.8h-4.5c-0.4,0-0.8-0.4-0.8-0.8v-22c0-5.1,3.5-6.3,7.3-6.3
		c1.3,0,3,0.2,4.1,0.3c0.4,0.1,0.6,0.2,0.6,0.4v3.3H383.3z M429,717.6c0,0.6-0.3,0.9-0.8,0.9h-11.9v0.1c0,2.1,0.9,4.1,3.9,4.1
		c2.4,0,5.7-0.2,7.2-0.3h0.1c0.4,0,0.7,0.2,0.7,0.6v2.8c0,0.6-0.1,0.9-0.8,1c-2.4,0.6-4.4,0.9-7.7,0.9c-4.5,0-9.4-2.4-9.4-9.6v-2.6
		c0-6,3.5-9.8,9.5-9.8c6.1,0,9.3,4.2,9.3,9.8v2.1H429z M448.9,578.2h-59.1c-4.8,0-7.9-3.9-7.9-8.8V374.3c0-49-16.3-60.8-52.5-60.8
		c-18.1,0-37.9,0.9-51.6,2.6v253.4c0,4.8-3.5,8.8-8.4,8.8h-58.6c-4.8,0-8.4-3.9-8.4-8.8V283.7c0-19.7,5.3-24.5,22.5-27.1
		c23.4-3.5,73.6-7.4,96.1-7.4c85.5,0,136.2,23.6,136.2,125.2v195.2C457.3,574.3,453.8,578.2,448.9,578.2z M475.5,718.1
		c0,8.7-6.6,9.4-9,9.4H466c-2.4,0-9-0.7-9-9.4v-11.4c0-0.4,0.3-0.8,0.7-0.8h4.6c0.4,0,0.7,0.4,0.7,0.8v11.4c0,3.5,1.1,4.3,2.9,4.3
		h0.5c1.8,0,2.9-0.8,2.9-4.3v-11.4c0-0.4,0.3-0.8,0.7-0.8h4.6c0.4,0,0.7,0.4,0.7,0.8v11.4H475.5z M522.7,718c0,5.8-3.1,9.5-9.4,9.5
		c-0.7,0-2-0.1-3.1-0.3v6.4c0,0.4-0.3,0.7-0.7,0.7H505c-0.4,0-0.8-0.3-0.8-0.7v-26.1c0-0.6,0.1-0.9,1.2-1.1c2.1-0.5,5.1-1,8-1
		c6.1,0,9.4,3.5,9.4,9.5v3.1H522.7z M524.7,569.5V336.2c0-4.8,4-8.8,8.8-8.8h53.8c4.8,0,8.8,3.9,8.8,8.8v233.3c0,4.8-4,8.8-8.8,8.8
		h-53.8C528.7,578.2,524.7,574.3,524.7,569.5z M523,290.2v-40.7c0-4.8,4-8.8,8.8-8.8h57.3c4.8,0,8.8,3.9,8.8,8.8v40.7
		c0,4.8-4,8.8-8.8,8.8h-57.3C526.9,299,523,295.1,523,290.2z M581,716.8h-33v-10h27.3l175.8-302.3L575.3,102.1H223.6L47.8,404.4
		l175.8,302.3h22l4.5,0.1l-0.1,10h-30.2v-0.1h-2L36.2,404.4L217.8,92.1H581l181.6,312.3L581,716.8z"/>
	<path class="st0" d="M513.3,710.6c-1.2,0-2.4,0.1-3.1,0.2v11.6c0.9,0.1,2.2,0.2,3.1,0.2c2.7,0,3.3-2,3.3-4.6v-2.9
		C516.6,712.5,515.9,710.6,513.3,710.6z"/>
</g>
<g>
	<polygon class="st0" points="400.8,9.5 496.9,64.8 504.9,64.8 401.8,5.5 400.8,4.9 296.8,64.8 304.8,64.8 	"/>
	<polygon class="st0" points="747.5,209 747.5,316.6 751.5,323.5 751.5,206.7 649.3,147.9 653.4,154.8 	"/>
	<polygon class="st0" points="54.2,607.8 54.2,500.2 50.2,493.3 50.2,610.1 152.3,668.9 148.3,662 	"/>
	<polygon class="st0" points="751.5,493.9 747.5,500.7 747.5,607.8 653.9,661.7 649.8,668.6 751.5,610.1 	"/>
	<polygon class="st0" points="400.8,807.3 305.8,752.6 297.8,752.6 399.8,811.3 400.8,811.9 503.9,752.6 495.9,752.6 	"/>
	<polygon class="st0" points="54.2,209 148.8,154.5 152.8,147.6 50.2,206.7 50.2,324.1 54.2,317.2 	"/>
</g>
</svg>
