<?xml version="1.0" encoding="utf-8"?>
<!-- Generator: Adobe Illustrator 23.1.1, SVG Export Plug-In . SVG Version: 6.00 Build 0)  -->
<svg version="1.1" id="Layer_1" xmlns="http://www.w3.org/2000/svg" xmlns:xlink="http://www.w3.org/1999/xlink" x="0px" y="0px"
	 viewBox="0 0 256 256" style="enable-background:new 0 0 256 256;" xml:space="preserve">
<style type="text/css">
	.st0{fill:#75171E;}
	.st1{fill:#FFFFFF;}
	.st2{display:none;fill:#FFFFFF;}
</style>
<path id="Retângulo_16" class="st0" d="M27,0h202c14.9,0,27,12.1,27,27v202c0,14.9-12.1,27-27,27H27c-14.9,0-27-12.1-27-27V27
	C0,12.1,12.1,0,27,0z"/>
<g id="logo_2018_2_" transform="translate(30.574 73.253)">
	<path id="Caminho_31_1_" class="st1" d="M191.6,20.3h-18.5c-1.6,0-2.8-1.3-2.8-2.8V4.3c0-1.6,1.3-2.8,2.8-2.8h18.5
		c1.6,0,2.8,1.3,2.8,2.8v13.1C194.4,19,193.2,20.3,191.6,20.3C191.6,20.3,191.6,20.3,191.6,20.3z M191,107.5h-17.3
		c-1.6,0-2.8-1.3-2.8-2.8V29.6c0-1.6,1.3-2.8,2.8-2.8H191c1.6,0,2.8,1.3,2.8,2.8v75.2C193.8,106.3,192.6,107.5,191,107.5
		C191,107.5,191,107.5,191,107.5L191,107.5z"/>
	<path id="Caminho_32_1_" class="st1" d="M3.1,1.5h19c1.4,0,2.6,1.2,2.6,2.7c0,0.1,0,0.1,0,0.2v62.9c0,15.8,5.3,19.6,16.9,19.6
		c5.6,0,11.1-0.2,16.6-0.8V4.3c-0.1-1.5,1.1-2.7,2.6-2.8c0,0,0,0,0,0h21.7c0,0.4,0,2.1,0,2.7v92.2c0,6.3-1.7,7.9-7.3,8.7
		c-10.3,1.3-20.6,2.1-31,2.4c-27.6,0-43.9-7.6-43.9-40.3V4.3C0.4,2.8,1.5,1.6,3,1.5C3,1.5,3,1.5,3.1,1.5C3.1,1.5,3.1,1.5,3.1,1.5z"
		/>
	<path class="st1" d="M153.3,41.8v62.9c0.1,1.5-1.1,2.7-2.6,2.8h0c0,0-2.3,0-2.3,0h-16.8c-1.4,0-2.6-1.2-2.5-2.7c0-0.1,0-0.1,0-0.2
		V41.8c0-15.8-5.3-19.6-16.9-19.6h-9.6c-1.6,0-2.9-1.3-2.9-2.9V1.5h9.8C136.9,1.5,153.3,9.1,153.3,41.8z"/>
	<path class="st2" d="M150.1,42.3v62.9c0.1,1.5-1.1,2.7-2.6,2.8h0c0,0-2.3,0-2.3,0h-16.8c-1.4,0-2.6-1.2-2.5-2.7c0-0.1,0-0.1,0-0.2
		V42.3c0-15.8-5.3-19.6-16.9-19.6H96.4V4.9c0-1.6,1.3-2.9,2.9-2.9h6.9C133.8,2,150.1,9.6,150.1,42.3z"/>
</g>
</svg>
