<svg xmlns="http://www.w3.org/2000/svg" xmlns:xlink="http://www.w3.org/1999/xlink" width="381" height="214" viewBox="0 0 381 214">
  <defs>
    <clipPath id="clip-Prancheta_6">
      <rect width="381" height="214"/>
    </clipPath>
  </defs>
  <g id="Prancheta_6" data-name="Prancheta – 6" clip-path="url(#clip-Prancheta_6)">
    <g id="logo_2018_1_" data-name="logo_2018 (1)" transform="translate(-206.859 -403.152)">
      <path id="Caminho_30" data-name="Caminho 30" d="M353.146,456.283H320.378c-3.021,0-4.973-2.455-4.973-5.539v-122.8c0-30.842-10.26-38.27-33.045-38.27h-24.5V249.2h19.214c53.816,0,85.729,14.855,85.729,78.8V450.87a5.244,5.244,0,0,1-5.1,5.476C357.7,456.283,353.209,456.283,353.146,456.283Z" transform="translate(137.384 156.87)" fill="#75171e"/>
      <path id="Caminho_31" data-name="Caminho 31" d="M564.606,277.4H528.539A5.547,5.547,0,0,1,523,271.857V246.239a5.588,5.588,0,0,1,5.539-5.539h36.067a5.547,5.547,0,0,1,5.539,5.539v25.618A5.507,5.507,0,0,1,564.606,277.4Zm-1.133,175.738H529.609a5.547,5.547,0,0,1-5.539-5.539V300.811a5.588,5.588,0,0,1,5.539-5.539h33.864a5.547,5.547,0,0,1,5.539,5.539V447.657a5.494,5.494,0,0,1-5.539,5.476Z" transform="translate(16.603 163.018)" fill="#75171e"/>
      <path id="Caminho_32" data-name="Caminho 32" d="M155.166,207.083h-37.2c-3.021,0-4.972-2.455-4.972-5.539V78.742c0-30.842-10.26-38.27-33.045-38.27A290.879,290.879,0,0,0,47.47,42.109v159.5a5.244,5.244,0,0,1-5.1,5.476H.011c0-.814-.024-4.072,0-5.35V21.715c0-12.4,3.336-15.421,14.162-17.058C28.9,2.455,60.5,0,74.661,0c53.816,0,85.729,14.855,85.729,78.8V201.67a5.244,5.244,0,0,1-5.1,5.476C155.292,207.083,155.229,207.083,155.166,207.083Z" transform="translate(368.254 613.216) rotate(180)" fill="#75171e"/>
    </g>
  </g>
</svg>
