<?xml version="1.0" encoding="utf-8"?>
<!-- Generator: Adobe Illustrator 16.0.0, SVG Export Plug-In . SVG Version: 6.00 Build 0)  -->
<!DOCTYPE svg PUBLIC "-//W3C//DTD SVG 1.1//EN" "http://www.w3.org/Graphics/SVG/1.1/DTD/svg11.dtd">
<svg version="1.1" id="Layer_1" xmlns="http://www.w3.org/2000/svg" xmlns:xlink="http://www.w3.org/1999/xlink" x="0px" y="0px"
	 width="612px" height="792px" viewBox="0 0 612 792" style="enable-background:new 0 0 612 792;" xml:space="preserve">
<g>
	<path style="fill:#FFFFFF;" d="M255.434,626.877c-1.606,0-2.601,1.071-2.601,3.137v0.152h5.202v-0.152
		C258.035,627.871,257.04,626.877,255.434,626.877z"/>
	<path style="fill:#FFFFFF;" d="M217.03,630.396v2.219c0,1.989,0.536,3.52,2.601,3.52c0.918,0,1.836-0.077,2.372-0.153v-8.874
		c-0.536-0.076-1.377-0.153-2.372-0.153C217.643,626.953,217.03,628.407,217.03,630.396z"/>
	<path style="fill:#FFFFFF;" d="M321.07,626.877c-1.606,0-2.601,1.071-2.601,3.137v0.152h5.202v-0.152
		C323.672,627.871,322.677,626.877,321.07,626.877z"/>
	<path style="fill:#FFFFFF;" d="M458.388,129.091h-306L25.934,346.581l-26.469,45.594l153,263.084h306l153-263.084L458.388,129.091z
		 M226.593,638.352c0,0.459-0.153,0.688-0.918,0.842c-1.606,0.383-3.901,0.765-6.043,0.765c-4.667,0-7.191-2.677-7.191-7.267v-2.219
		c0-4.59,2.524-7.268,7.191-7.268c2.219,0,4.437,0.306,6.043,0.765c0.765,0.153,0.918,0.383,0.918,0.842V638.352z M262.548,632.309
		c0,0.459-0.229,0.688-0.612,0.688h-9.104v0.076c0,1.606,0.688,3.137,2.983,3.137c1.836,0,4.361-0.153,5.508-0.229h0.076
		c0.306,0,0.536,0.153,0.536,0.459v2.142c0,0.459-0.153,0.688-0.612,0.766c-1.836,0.459-3.366,0.688-5.891,0.688
		c-3.442,0-7.191-1.836-7.191-7.344v-1.989c0-4.59,2.677-7.497,7.268-7.497c4.667,0,7.114,3.213,7.114,7.497v1.606H262.548z
		 M293.225,620.451c0,0.306-0.077,0.459-0.383,0.459h-2.983c-0.918,0-1.071,0.535-1.071,1.377v1.147h3.901
		c0.306,0,0.536,0.229,0.536,0.535v2.295c0,0.307-0.229,0.536-0.536,0.536h-3.901v12.239c0,0.307-0.306,0.612-0.612,0.612h-3.442
		c-0.306,0-0.612-0.306-0.612-0.612v-16.829c0-3.902,2.677-4.82,5.584-4.82c0.995,0,2.295,0.153,3.136,0.229
		c0.306,0.077,0.459,0.153,0.459,0.307v2.524H293.225z M328.185,632.309c0,0.459-0.229,0.688-0.611,0.688h-9.104v0.076
		c0,1.606,0.688,3.137,2.983,3.137c1.836,0,4.36-0.153,5.508-0.229h0.076c0.307,0,0.536,0.153,0.536,0.459v2.142
		c0,0.459-0.077,0.688-0.612,0.766c-1.836,0.459-3.366,0.688-5.891,0.688c-3.442,0-7.19-1.836-7.19-7.344v-1.989
		c0-4.59,2.677-7.497,7.268-7.497c4.666,0,7.114,3.213,7.114,7.497v1.606H328.185z M343.408,525.668h-45.211
		c-3.672,0-6.044-2.984-6.044-6.732V369.684c0-37.485-12.469-46.512-40.162-46.512c-13.847,0-28.994,0.688-39.474,1.989v193.851
		c0,3.672-2.678,6.732-6.426,6.732h-44.829c-3.672,0-6.426-2.983-6.426-6.732V300.375c0-15.07,4.055-18.743,17.212-20.731
		c17.901-2.678,56.304-5.661,73.517-5.661c65.408,0,104.193,18.054,104.193,95.778v149.328
		C349.834,522.684,347.157,525.668,343.408,525.668z M363.758,632.691c0,6.655-5.049,7.19-6.886,7.19h-0.382
		c-1.836,0-6.885-0.535-6.885-7.19v-8.722c0-0.306,0.229-0.611,0.535-0.611h3.519c0.307,0,0.536,0.306,0.536,0.611v8.722
		c0,2.677,0.841,3.289,2.218,3.289h0.383c1.377,0,2.219-0.612,2.219-3.289v-8.722c0-0.306,0.229-0.611,0.535-0.611h3.52
		c0.306,0,0.535,0.306,0.535,0.611v8.722H363.758z M399.865,632.614c0,4.438-2.371,7.268-7.19,7.268
		c-0.536,0-1.53-0.076-2.372-0.229v4.896c0,0.306-0.229,0.535-0.535,0.535h-3.442c-0.307,0-0.612-0.229-0.612-0.535v-19.967
		c0-0.459,0.076-0.688,0.918-0.842c1.606-0.382,3.901-0.765,6.12-0.765c4.667,0,7.191,2.678,7.191,7.268v2.371H399.865z
		 M401.396,519.012V340.538c0-3.672,3.06-6.732,6.732-6.732h41.156c3.672,0,6.732,2.983,6.732,6.732v178.474
		c0,3.672-3.061,6.732-6.732,6.732h-41.156C404.455,525.668,401.396,522.684,401.396,519.012z M400.095,305.348v-31.136
		c0-3.672,3.061-6.732,6.732-6.732h43.834c3.672,0,6.732,2.983,6.732,6.732v31.136c0,3.672-3.061,6.732-6.732,6.732h-43.834
		C403.078,312.08,400.095,309.096,400.095,305.348z M444.465,631.696H419.22v-7.649h20.885l134.487-231.26L440.104,161.451h-269.05
		L36.567,392.71L171.054,623.97h16.83l3.443,0.077l-0.077,7.649h-23.103v-0.076h-1.53L27.693,392.71l138.924-238.91h277.848
		l138.924,238.91L444.465,631.696z"/>
	<path style="fill:#FFFFFF;" d="M392.675,626.953c-0.918,0-1.836,0.077-2.372,0.153v8.874c0.688,0.076,1.684,0.153,2.372,0.153
		c2.065,0,2.524-1.53,2.524-3.52v-2.219C395.199,628.407,394.663,626.953,392.675,626.953z"/>
</g>
<g>
	<polygon style="fill:#FFFFFF;" points="306.612,90.612 380.129,132.917 386.248,132.917 307.377,87.552 306.612,87.093 
		227.052,132.917 233.172,132.917 	"/>
	<polygon style="fill:#FFFFFF;" points="571.838,243.229 571.838,325.543 574.897,330.822 574.897,241.47 496.715,196.488 
		499.851,201.767 	"/>
	<polygon style="fill:#FFFFFF;" points="41.463,548.312 41.463,465.997 38.403,460.719 38.403,550.071 116.509,595.053 
		113.45,589.774 	"/>
	<polygon style="fill:#FFFFFF;" points="574.897,461.178 571.838,466.38 571.838,548.312 500.233,589.545 497.097,594.823 
		574.897,550.071 	"/>
	<polygon style="fill:#FFFFFF;" points="306.612,700.929 233.937,659.083 227.817,659.083 305.847,703.989 306.612,704.448 
		385.483,659.083 379.363,659.083 	"/>
	<polygon style="fill:#FFFFFF;" points="41.463,243.229 113.832,201.537 116.892,196.258 38.403,241.47 38.403,331.281 
		41.463,326.002 	"/>
</g>
</svg>
