<?xml version="1.0" encoding="utf-8"?>
<!-- Generator: Adobe Illustrator 22.0.1, SVG Export Plug-In . SVG Version: 6.00 Build 0)  -->
<svg version="1.1" id="Layer_1" xmlns="http://www.w3.org/2000/svg" xmlns:xlink="http://www.w3.org/1999/xlink" x="0px" y="0px"
	 viewBox="0 0 800 817.4" style="enable-background:new 0 0 800 817.4;" xml:space="preserve">
<style type="text/css">
	.st0{fill:#B33636;}
</style>
<g>
	<path class="st0" d="M448.9,578.2h-59.1c-4.8,0-7.9-3.9-7.9-8.8V374.3c0-49-16.3-60.8-52.5-60.8c-18.1,0-37.9,0.9-51.6,2.6v253.4
		c0,4.8-3.5,8.8-8.4,8.8h-58.6c-4.8,0-8.4-3.9-8.4-8.8V283.7c0-19.7,5.3-24.5,22.5-27.1c23.4-3.5,73.6-7.4,96.1-7.4
		c85.5,0,136.2,23.6,136.2,125.2v195.2C457.3,574.3,453.8,578.2,448.9,578.2z"/>
	<path class="st0" d="M589.1,299h-57.3c-4.9,0-8.8-3.9-8.8-8.8v-40.7c0-4.8,4-8.8,8.8-8.8h57.3c4.8,0,8.8,3.9,8.8,8.8v40.7
		C597.9,295.1,594,299,589.1,299z M587.3,578.2h-53.8c-4.8,0-8.8-3.9-8.8-8.8V336.2c0-4.8,4-8.8,8.8-8.8h53.8c4.8,0,8.8,3.9,8.8,8.8
		v233.3C596.2,574.3,592.2,578.2,587.3,578.2z"/>
</g>
<g>
	<path class="st0" d="M295.1,726.6c-2.1,0.5-5.1,1-7.9,1c-6.1,0-9.4-3.5-9.4-9.5v-2.9c0-6,3.3-9.5,9.4-9.5c2.9,0,5.8,0.4,7.9,1
		c1,0.2,1.2,0.5,1.2,1.1v17.8C296.2,726.1,296.1,726.4,295.1,726.6z M290.2,710.8c-0.7-0.1-1.8-0.2-3.1-0.2c-2.7,0-3.4,1.9-3.4,4.5
		v2.9c0,2.6,0.7,4.6,3.4,4.6c1.2,0,2.4-0.1,3.1-0.2V710.8z"/>
	<path class="st0" d="M342.4,718.5h-11.9v0.1c0,2.1,0.9,4.1,3.9,4.1c2.4,0,5.7-0.2,7.2-0.3h0.1c0.4,0,0.7,0.2,0.7,0.6v2.8
		c0,0.6-0.2,0.9-0.8,1c-2.4,0.6-4.4,0.9-7.7,0.9c-4.5,0-9.4-2.4-9.4-9.6v-2.6c0-6,3.5-9.8,9.5-9.8c6.1,0,9.3,4.2,9.3,9.8v2.2
		C343.2,718.1,342.9,718.5,342.4,718.5z M337.3,714.6c0-2.8-1.3-4.1-3.4-4.1s-3.4,1.4-3.4,4.1v0.2h6.8V714.6z"/>
	<path class="st0" d="M382.6,710.4h-5.1v16c0,0.4-0.4,0.8-0.8,0.8h-4.5c-0.4,0-0.8-0.4-0.8-0.8v-22c0-5.1,3.5-6.3,7.3-6.3
		c1.3,0,3,0.2,4.1,0.3c0.4,0.1,0.6,0.2,0.6,0.4v3.1c0,0.4-0.1,0.6-0.5,0.6H379c-1.2,0-1.4,0.7-1.4,1.8v1.5h5.1
		c0.4,0,0.7,0.3,0.7,0.7v3C383.3,710.1,383,710.4,382.6,710.4z"/>
	<path class="st0" d="M428.2,718.5h-11.9v0.1c0,2.1,0.9,4.1,3.9,4.1c2.4,0,5.7-0.2,7.2-0.3h0.1c0.4,0,0.7,0.2,0.7,0.6v2.8
		c0,0.6-0.1,0.9-0.8,1c-2.4,0.6-4.4,0.9-7.7,0.9c-4.5,0-9.4-2.4-9.4-9.6v-2.6c0-6,3.5-9.8,9.5-9.8c6.1,0,9.3,4.2,9.3,9.8v2.2
		C429,718.1,428.7,718.5,428.2,718.5z M423.1,714.6c0-2.8-1.3-4.1-3.4-4.1s-3.4,1.4-3.4,4.1v0.2h6.8V714.6z"/>
	<path class="st0" d="M466.6,727.6H466c-2.4,0-9-0.7-9-9.4v-11.4c0-0.4,0.3-0.8,0.7-0.8h4.6c0.4,0,0.7,0.4,0.7,0.8v11.4
		c0,3.5,1.1,4.3,2.9,4.3h0.5c1.8,0,2.9-0.8,2.9-4.3v-11.4c0-0.4,0.3-0.8,0.7-0.8h4.6c0.4,0,0.7,0.4,0.7,0.8v11.4
		C475.5,726.9,468.9,727.6,466.6,727.6z"/>
	<path class="st0" d="M513.3,727.6c-0.7,0-2-0.1-3.1-0.3v6.4c0,0.4-0.3,0.7-0.7,0.7H505c-0.4,0-0.8-0.3-0.8-0.7v-26.1
		c0-0.6,0.1-0.9,1.2-1.1c2.1-0.5,5.1-1,8-1c6.1,0,9.4,3.5,9.4,9.5v2.9C522.7,723.9,519.6,727.6,513.3,727.6z M516.6,715.1
		c0-2.6-0.7-4.5-3.3-4.5c-1.2,0-2.4,0.1-3.1,0.2v11.6c0.9,0.1,2.2,0.2,3.1,0.2c2.7,0,3.3-2,3.3-4.6V715.1z"/>
</g>
<polygon class="st0" points="250.8,718.9 220.6,718.9 220.6,718.8 220.3,718.8 219.7,717.8 40.4,409.5 220.3,100.1 580.1,100.1 
	580.7,101.1 760,409.5 759.4,410.5 580.1,718.8 548.8,718.8 548.8,714.8 577.8,714.8 755.3,409.5 577.8,104.1 222.6,104.1 
	45.1,409.5 222.6,714.8 246.4,714.8 250.8,714.9 "/>
<g id="g52_1_" transform="matrix(0.33506735,0,0,-0.33506735,133.7355,903.83373)">
	<path class="st0" d="M1393.3,448.4H196l-598.6,1029.3L196,2507.1h1197.2l598.6-1029.4l-0.9-1.5L1393.3,448.4z M199.5,454.4h1190.4
		L1985,1477.7l-595.2,1023.4H199.5l-595.2-1023.4L199.5,454.4z"/>
</g>
<g>
	<polygon class="st0" points="400.8,9.5 496.9,64.8 504.9,64.8 401.8,5.5 400.8,4.9 296.8,64.8 304.8,64.8 	"/>
	<polygon class="st0" points="747.5,209 747.5,316.6 751.5,323.5 751.5,206.7 649.3,147.9 653.4,154.8 	"/>
	<polygon class="st0" points="54.2,607.8 54.2,500.2 50.2,493.3 50.2,610.1 152.3,668.9 148.3,662 	"/>
	<polygon class="st0" points="751.5,493.9 747.5,500.7 747.5,607.8 653.9,661.7 649.8,668.6 751.5,610.1 	"/>
	<polygon class="st0" points="400.8,807.3 305.8,752.6 297.8,752.6 399.8,811.3 400.8,811.9 503.9,752.6 495.9,752.6 	"/>
	<polygon class="st0" points="54.2,209 148.8,154.5 152.8,147.6 50.2,206.7 50.2,324.1 54.2,317.2 	"/>
</g>
</svg>
