<svg id="svg" xmlns="http://www.w3.org/2000/svg" xmlns:xlink="http://www.w3.org/1999/xlink" width="400" height="400" viewBox="0, 0, 400,400"><g id="svgg"><path id="path0" d="M137.093 49.805 C 146.078 72.470,153.841 111.897,149.769 114.176 C 134.224 122.876,111.236 141.141,92.027 160.055 L 82.102 169.829 74.835 162.844 C 53.732 142.559,27.111 131.134,4.492 132.655 L 0.000 132.957 0.000 142.232 C 0.000 161.056,5.501 179.153,16.036 194.986 L 20.358 201.481 16.759 206.738 C 5.796 222.751,0.000 241.509,0.000 260.977 L 0.000 270.313 7.227 270.311 C 30.996 270.308,53.782 260.006,75.769 239.323 L 82.036 233.427 92.776 243.808 C 117.813 268.010,142.376 285.756,168.323 298.389 L 177.829 303.017 177.261 307.563 C 176.027 317.462,176.839 349.756,178.361 351.278 C 179.109 352.026,194.079 347.924,201.212 345.015 C 214.845 339.457,226.076 332.365,237.249 322.260 L 242.858 317.187 248.187 317.180 C 307.944 317.101,367.039 276.085,394.509 215.625 C 401.556 200.114,401.638 201.154,391.825 181.641 C 364.344 126.996,317.019 92.825,259.803 86.315 C 255.993 85.881,254.369 85.193,250.819 82.505 C 227.744 65.037,189.983 52.819,148.047 49.251 C 135.870 48.215,136.452 48.186,137.093 49.805 M314.608 152.419 C 324.352 157.136,324.081 172.200,314.178 176.337 C 310.080 178.050,303.913 177.349,300.557 174.789 C 287.802 165.060,300.141 145.415,314.608 152.419 " stroke="none" fill="#000000" fill-rule="evenodd"></path></g></svg>