<svg id="svg" xmlns="http://www.w3.org/2000/svg" xmlns:xlink="http://www.w3.org/1999/xlink" width="400" height="400" viewBox="0, 0, 400,400" version="1.1"><g id="svgg"><path id="path0" d="M235.894 17.066 C 233.189 19.256,233.603 22.475,237.303 28.015 C 243.775 37.708,243.175 45.291,235.096 55.890 C 224.249 70.121,225.160 92.910,236.906 101.137 C 243.733 105.919,248.303 98.681,243.093 91.338 C 236.016 81.366,236.517 73.178,244.894 61.873 C 250.938 53.715,251.953 50.604,251.953 40.234 C 251.953 24.593,242.838 11.443,235.894 17.066 M10.644 19.116 C 3.579 21.635,-0.023 27.408,0.044 36.108 C 0.105 44.122,-0.811 42.440,35.420 101.040 L 68.105 153.906 80.547 153.906 L 92.990 153.906 91.890 151.367 C 85.956 137.668,34.449 29.356,32.788 27.083 C 27.181 19.410,18.541 16.302,10.644 19.116 M325.781 28.125 C 323.450 30.456,323.870 33.265,327.323 38.436 C 334.163 48.679,333.564 55.488,324.763 67.539 C 314.595 81.462,314.846 98.382,325.394 110.057 C 332.374 117.784,339.729 110.430,333.194 102.258 C 325.964 93.216,326.617 84.323,335.393 72.305 C 341.156 64.414,342.580 60.145,342.572 50.781 C 342.561 35.970,332.079 21.827,325.781 28.125 M134.887 44.397 C 132.814 46.688,133.350 49.904,136.656 55.024 C 143.224 65.193,142.632 72.337,134.318 83.233 C 123.567 97.325,124.159 117.240,135.629 127.311 C 142.446 133.296,148.323 125.996,142.601 118.651 C 135.330 109.319,135.790 100.448,144.129 89.194 C 148.847 82.826,151.136 77.511,151.944 71.047 C 153.797 56.218,141.531 37.055,134.887 44.397 M27.751 165.398 C 16.472 240.613,63.555 318.260,138.445 347.946 L 143.687 350.024 214.617 349.817 L 285.547 349.609 296.875 344.004 C 366.899 309.353,406.487 241.065,399.491 166.992 L 398.993 161.719 213.648 161.719 L 28.302 161.719 27.751 165.398 M78.112 189.049 C 79.420 190.358,79.572 191.178,79.088 194.323 C 75.055 220.544,87.201 250.981,106.167 262.185 C 110.464 264.723,110.730 269.373,106.683 271.217 C 101.287 273.675,83.623 255.424,76.221 239.740 C 65.258 216.511,66.708 177.645,78.112 189.049 M147.656 371.875 L 147.656 384.375 213.672 384.375 L 279.688 384.375 279.688 371.875 L 279.688 359.375 213.672 359.375 L 147.656 359.375 147.656 371.875 " stroke="none" fill="#000000" fill-rule="evenodd"></path></g></svg>