<svg viewBox="0 0 490.2 96.72" xmlns="http://www.w3.org/2000/svg"><g fill="#75171e" transform="translate(-348.71 -699.94)"><path d="m381 768.63a14.67 14.67 0 0 1 -13.55 9h-4a14.28 14.28 0 0 1 -5.71-1.15 14.66 14.66 0 0 1 -7.84-7.84 14.28 14.28 0 0 1 -1.15-5.71v-56.3h6v24.22a14.58 14.58 0 0 1 4.93-3.81 14.39 14.39 0 0 1 6.25-1.36h1.51a14.5 14.5 0 0 1 5.72 1.14 14.84 14.84 0 0 1 4.68 3.15 14.66 14.66 0 0 1 3.15 4.69 14.32 14.32 0 0 1 1.15 5.71v22.56a14.28 14.28 0 0 1 -1.14 5.7zm-4.9-28.63a8.42 8.42 0 0 0 -.68-3.39 8.64 8.64 0 0 0 -1.85-2.76 9.07 9.07 0 0 0 -2.76-1.86 8.6 8.6 0 0 0 -3.4-.68h-4a8.55 8.55 0 0 0 -3.41.69 8.7 8.7 0 0 0 -4.62 4.62 8.59 8.59 0 0 0 -.68 3.39v23.24a8.6 8.6 0 0 0 .68 3.4 9 9 0 0 0 1.86 2.76 8.64 8.64 0 0 0 2.76 1.85 8.39 8.39 0 0 0 3.39.69h4a8.44 8.44 0 0 0 3.4-.69 8.86 8.86 0 0 0 2.76-1.85 8.75 8.75 0 0 0 1.85-2.76 8.43 8.43 0 0 0 .68-3.4z"/><path d="m402.23 796.66h-5.81l8.88-24.31-16.21-45.71h6l13 37.89.19 2.59.2-2.59 13-37.89h6z"/><path d="m500.82 776.64h-9.4a2 2 0 0 1 -1.9-2.1v-34.6c0-4.9-1-9.4-6.8-9.4h-6.2c-5.8 0-6.8 4.5-6.8 9.4v34.6a2 2 0 0 1 -1.9 2.1h-9.4a2 2 0 0 1 -1.9-2.1v-34.6c0-12.1 7-20.4 20-20.4h6.2c13 0 20 8.3 20 20.4v34.6a2 2 0 0 1 -1.9 2.1z"/><path d="m527 712.74h-9.7a2.09 2.09 0 0 1 -2.1-2v-8.8a2.09 2.09 0 0 1 2.1-2h9.7a2 2 0 0 1 2 2v8.8a2 2 0 0 1 -2 2zm-.3 63.9h-9.2a2.09 2.09 0 0 1 -2-2.1v-52.3a2 2 0 0 1 2-2h9.2a2 2 0 0 1 2 2v52.3a2.09 2.09 0 0 1 -1.98 2.1z"/><path d="m580.72 775a82.71 82.71 0 0 1 -18.4 2.3c-14.9 0-21.8-9.7-21.8-24.7v-7c0-15 6.8-24.7 21.8-24.7a83.47 83.47 0 0 1 18.4 2.3c1.8.4 2.1.9 2.1 2.3v47.2c0 1.3-.3 1.94-2.1 2.3zm-6.7-45.7a72.92 72.92 0 0 0 -11.7-1c-9.9 0-13 6.7-13 17.3v7c0 10.5 3.1 17.3 13 17.3a74 74 0 0 0 11.7-1z"/><path d="m637.12 751.94h-33.5v1.2c0 11.5 5.4 16.8 14.6 16.8a123.18 123.18 0 0 0 17.1-1.4h.5a1.42 1.42 0 0 1 1.6 1.4v3.4c0 1.3-.4 2-2 2.3a83.57 83.57 0 0 1 -17.2 1.7c-11.5 0-23.4-5.5-23.4-24.7v-7c0-14.2 7.9-24.7 22.2-24.7 14.6 0 22 10.4 22 24.6v4.2c-.02 1.26-.7 2.2-1.9 2.2zm-7-7.2c0-10.7-4.3-16.1-13.1-16.1-8.6 0-13.4 5.8-13.4 16.1v.5h26.5z"/><path d="m675.12 707.84h-8.9c-5.5 0-6.6.9-6.6 6.8v7h15.6a1.76 1.76 0 0 1 1.9 1.8v3.4a1.82 1.82 0 0 1 -1.9 1.8h-15.6v46a2 2 0 0 1 -2 2h-4.8a2 2 0 0 1 -2-2v-60c0-10.7 6-13.9 15.4-13.9a64.56 64.56 0 0 1 9 .6c1.5.2 2 .8 2 1.7v3.4c0 .9-.7 1.4-2.1 1.4z"/><path d="m727.22 751.94h-33.51v1.2c0 11.5 5.41 16.8 14.61 16.8a123.18 123.18 0 0 0 17.1-1.4h.5a1.42 1.42 0 0 1 1.6 1.4v3.4c0 1.3-.4 2-2 2.3a83.57 83.57 0 0 1 -17.2 1.7c-11.51 0-23.41-5.5-23.41-24.7v-7c0-14.2 7.9-24.7 22.21-24.7 14.6 0 22 10.4 22 24.6v4.2c0 1.26-.7 2.2-1.9 2.2zm-7-7.2c0-10.7-4.3-16.1-13.1-16.1-8.61 0-13.41 5.8-13.41 16.1v.5h26.51z"/><path d="m762.41 777.34h-.9c-6.8 0-20.6-3.8-20.6-23.5v-30.2a1.84 1.84 0 0 1 1.8-2h5.2a1.84 1.84 0 0 1 1.8 2v30.2c0 12 5.1 15.8 11.8 15.8h.9c6.7 0 11.8-3.8 11.8-15.8v-30.2a1.85 1.85 0 0 1 1.8-2h5.2a1.85 1.85 0 0 1 1.81 2v30.2c-.02 19.7-13.81 23.5-20.61 23.5z"/><path d="m817.11 777.34a73.9 73.9 0 0 1 -11.7-1.1v18.1a1.9 1.9 0 0 1 -1.9 1.9h-5.1a1.82 1.82 0 0 1 -1.8-1.9v-68.8c0-1.3.3-1.9 2.1-2.3a82.71 82.71 0 0 1 18.4-2.3c14.9 0 21.8 9.7 21.8 24.7v7.2c0 15.7-7.2 24.5-21.8 24.5zm13-31.7c0-10.5-3.1-17.3-13-17.3a74 74 0 0 0 -11.7 1v39.6a78.1 78.1 0 0 0 11.7 1c9.8 0 13-6.4 13-17.1z"/></g></svg>