<svg xmlns="http://www.w3.org/2000/svg" xmlns:xlink="http://www.w3.org/1999/xlink" width="256" height="256" viewBox="0 0 256 256">
  <defs>
    <clipPath id="clip-Prancheta_12">
      <rect width="256" height="256"/>
    </clipPath>
  </defs>
  <g id="Prancheta_12" data-name="Prancheta – 12" clip-path="url(#clip-Prancheta_12)">
    <rect id="Retângulo_16" data-name="Retângulo 16" width="256" height="256" rx="27" fill="#75171e"/>
    <g id="logo_2018_1_" data-name="logo_2018 (1)" transform="translate(30.574 73.253)">
      <path id="Caminho_30" data-name="Caminho 30" d="M306.637,355.209H289.863a2.607,2.607,0,0,1-2.545-2.836V289.509c0-15.788-5.252-19.591-16.916-19.591H257.859V249.2h9.836c27.549,0,43.886,7.6,43.886,40.341v62.9a2.685,2.685,0,0,1-2.61,2.8C308.97,355.209,306.67,355.209,306.637,355.209Z" transform="translate(-161.934 -247.996)" fill="#fff"/>
      <path id="Caminho_31" data-name="Caminho 31" d="M544.3,259.485H525.835A2.84,2.84,0,0,1,523,256.65V243.536a2.861,2.861,0,0,1,2.835-2.835H544.3a2.84,2.84,0,0,1,2.836,2.835V256.65A2.819,2.819,0,0,1,544.3,259.485Zm-.58,89.962H526.383a2.84,2.84,0,0,1-2.835-2.836V271.472a2.861,2.861,0,0,1,2.835-2.835h17.335a2.839,2.839,0,0,1,2.835,2.835v75.173a2.812,2.812,0,0,1-2.835,2.8Z" transform="translate(-353.176 -240.7)" fill="#fff"/>
      <path id="Caminho_32" data-name="Caminho 32" d="M79.431,106.009H60.389a2.607,2.607,0,0,1-2.545-2.835V40.309c0-15.789-5.252-19.591-16.916-19.591a148.905,148.905,0,0,0-16.626.838v81.649a2.685,2.685,0,0,1-2.61,2.8H.005c0-.417-.012-2.084,0-2.739V11.116c0-6.348,1.708-7.894,7.25-8.732A291.887,291.887,0,0,1,38.22,0C65.77,0,82.106,7.6,82.106,40.341v62.9a2.685,2.685,0,0,1-2.61,2.8C79.5,106.009,79.464,106.009,79.431,106.009Z" transform="translate(82.108 107.245) rotate(180)" fill="#fff"/>
    </g>
  </g>
</svg>
